<?xml version="1.0" encoding="UTF-8" standalone="no"?>
<svg width="64px" height="63px" viewBox="0 0 64 63" version="1.1" xmlns="http://www.w3.org/2000/svg" xmlns:xlink="http://www.w3.org/1999/xlink">
    <!-- Generator: Sketch 40.1 (33804) - http://www.bohemiancoding.com/sketch -->
    <title>Facility_Technology_and_Management_logo</title>
    <desc>Created with Sketch.</desc>
    <defs></defs>
    <g id="Page-1-Home-all-icons" stroke="none" stroke-width="1" fill="none" fill-rule="evenodd">
        <g id="Desktop" transform="translate(-535.000000, -1377.000000)" fill="#000000">
            <g id="Facility_Technology_and_Management_logo" transform="translate(535.000000, 1377.000000)">
                <g id="Facility_x5F_Technology_x5F_and_x5F_Management">
                    <path d="M12.36224,0 L12.4450133,0 C14.8497067,1.91043243 17.4702933,4.15544595 19.98592,6.20890541 C20.3613867,6.51454054 20.8631467,6.80059459 20.9749333,7.15305405 C21.18912,7.83328378 21.0158933,8.79616216 21.0158933,9.57940541 C21.0158933,10.380527 20.93568,11.1620676 21.0986667,11.8823108 C24.9198933,12.0236351 29.2949333,12.0866351 33.2142933,11.9223243 C33.4267733,11.483027 33.3380267,10.9628514 33.3380267,10.4843919 C33.3380267,7.13687838 33.30816,3.56375676 33.4199467,0.0417162162 C33.91232,0.0851351351 34.2314667,0.537202703 34.5745067,0.823256757 C36.6967467,2.58725676 38.8701867,4.37509459 41.08544,6.20890541 C41.4216533,6.48644595 42.0181333,6.88743243 42.1154133,7.15305405 C42.34496,7.78475676 42.1563733,8.83106757 42.1563733,9.57940541 C42.1563733,10.4154324 42.0932267,11.2191081 42.2391467,11.9640405 C46.25664,12.0202297 50.62144,12.1087703 54.5194667,11.9223243 C54.7396267,11.0181892 54.6432,10.0101892 54.6432,9.00389189 C54.6432,6.07439189 54.5578667,2.8035 54.7259733,0.0834324324 C55.2200533,0.0732162162 55.4922667,0.631702703 55.87968,0.86327027 C56.96,1.75974324 58.0625067,2.63408108 59.0941867,3.57652703 C60.2513067,4.44916216 61.2053333,5.29795946 62.3496533,6.24891892 C62.7618133,6.59286486 63.2516267,6.82102703 63.3796267,7.19477027 C63.61856,7.88947297 63.4205867,9.76414865 63.4205867,10.6069865 C63.4205867,13.9979189 63.488,17.5676351 63.3378133,20.7619054 C60.7675733,21.0079459 57.6256,20.6818784 55.05536,20.9262162 C54.9845333,21.182473 55.2891733,21.3433784 55.42656,21.4617162 C56.63488,22.4944054 57.92512,23.5637027 59.17696,24.6278919 C60.6011733,25.8368108 62.12608,26.9478243 63.42144,28.2444324 C63.4496,32.6859324 63.5537067,37.4858514 63.38048,41.8541351 C60.7709867,42.1504054 57.80992,41.8473243 55.0971733,42.0167432 C55.08096,42.5156351 55.7277867,42.7020811 56.0034133,43.046027 C57.2868267,44.0608378 58.4994133,45.1463108 59.75296,46.2105 C60.992,47.2610676 62.40768,48.1677568 63.4615467,49.4183919 C63.37792,53.9995135 63.6245333,58.4920946 63.4205867,62.8620811 C59.4773333,63.0536351 55.1790933,62.8901757 51.0993067,62.9455135 C50.2161067,62.3997973 49.60512,61.5484459 48.8738133,60.8486351 C47.0638933,59.1127297 45.27616,57.3002027 43.4756267,55.503 C43.12064,55.1488378 42.8305067,54.6763378 42.32192,54.5171351 C41.99168,57.1827162 42.42432,60.1454189 42.1572267,62.8629324 C41.2526933,63.0587432 40.23552,62.9863784 39.232,62.9863784 C36.1915733,62.9863784 32.9924267,62.9429595 29.95968,62.9463649 C29.0986667,62.3861757 28.4501333,61.5629189 27.7341867,60.8494865 C25.9566933,59.0752703 24.1783467,57.2593378 22.37696,55.4621351 C22.0202667,55.107973 21.68064,54.698473 21.2232533,54.4762703 C20.98176,55.0798784 21.03552,55.8197027 21.05856,56.5314324 C21.10208,57.9148784 21.1003733,59.3851622 21.05856,60.8077703 C21.0372267,61.5177973 21.23776,62.2457027 20.9757867,62.8629324 C16.86528,62.9710541 12.70784,63.0093649 8.61354667,62.9463649 C5.99893333,60.5336351 3.49269333,57.9182838 0.948906667,55.3804054 C0.621226667,55.0543378 0.0904533333,54.7631757 0.0426666667,54.2293784 C2.94058667,54.0991216 6.14997333,54.1459459 9.23050667,54.1459459 C10.2306133,54.1459459 11.24352,54.2421486 12.1565867,54.0225 C12.3067733,52.1418649 12.2385067,50.0586081 12.2385067,48.0196216 C12.2385067,45.9661622 12.3357867,43.9024865 12.1147733,42.0584595 C11.0532267,41.7272838 9.75786667,42.2346892 8.6528,41.9350135 C8.26709333,41.8302973 7.87882667,41.2862838 7.49909333,40.9074324 C5.28725333,38.7007297 3.14282667,36.5612838 0.9472,34.3707568 C0.60416,34.0293649 0.149333333,33.6828649 0,33.1780135 C2.89024,33.0349865 6.08853333,33.0562703 9.18954667,33.0545676 C10.2101333,33.0545676 11.2264533,33.1490676 12.1565867,32.9311216 C12.3136,29.0038378 12.1813333,25.0476081 12.1565867,20.9670811 C11.0788267,20.5916351 9.79968,21.0581757 8.61269333,20.8027703 C8.24149333,20.7227432 7.81568,20.1310541 7.45898667,19.7751892 C5.24629333,17.5667838 3.10528,15.4315946 0.90624,13.2385135 C0.581973333,12.915 0.0520533333,12.6204324 0,12.0866351 C3.86218667,11.8772027 8.19541333,12.1385676 12.0738133,11.9223243 C12.2973867,11.0309595 12.1975467,10.0280676 12.1975467,9.04560811 L12.1975467,3.08444595 C12.1975467,2.06367568 12.1642667,0.98927027 12.2385067,0.123445946 C12.2615467,0.0647027027 12.30336,0.0229864865 12.36224,0 L12.36224,0 Z M29.8350933,20.8036216 C27.6189867,18.8395541 25.5556267,16.5349459 23.40608,14.3903919 C22.8053333,13.7901892 21.7890133,12.7472838 21.1396267,12.2935135 C21.0875733,12.3096892 21.0551467,12.3462973 21.0568533,12.4161081 C20.98176,13.6446081 21.0158933,15.231527 21.0158933,16.6515811 C21.0158933,17.3701216 20.9954133,18.1116486 21.0158933,18.7901757 C21.03552,19.4687027 21.10464,20.1421216 20.89216,20.7227432 C18.2638933,20.9091892 15.2200533,20.6827297 12.6088533,20.8870541 C12.7249067,21.3757297 13.2266667,21.6021892 13.5569067,21.8729189 C13.9255467,22.1751486 14.2498133,22.5046216 14.62784,22.7770541 C16.04096,23.9706486 17.4737067,25.1446622 18.91328,26.3118649 C19.2247467,26.6524054 19.6138667,26.9239865 19.9850667,27.2168514 C20.3076267,27.4714054 20.85632,27.797473 20.97408,28.2044189 C21.1771733,28.902527 21.01504,29.8637027 21.01504,30.6699324 C21.01504,31.4693514 20.95104,32.2747297 21.1387733,32.9728378 C24.0375467,33.1192703 27.32288,33.0545676 30.32832,33.0545676 C31.3506133,33.0545676 32.3729067,33.152473 33.29536,32.9311216 C33.4276267,29.091527 33.4344533,24.8151892 33.29536,20.9253649 C32.2500267,20.7065676 31.0741333,20.8495946 29.8350933,20.8036216 L29.8350933,20.8036216 Z M42.1981867,12.4995405 C42.0462933,15.2349324 42.3005867,18.1346351 42.0744533,20.7619054 C39.4897067,20.9798514 36.44416,20.7372162 33.792,20.8862027 C33.86624,21.3416757 34.3355733,21.6447568 34.65728,21.9137838 C36.45952,23.4172703 38.26432,24.9471486 40.05632,26.3952973 C40.79104,26.9886892 41.5556267,27.5727162 42.1572267,28.2861486 C42.1947733,29.910527 42.0795733,31.6549459 42.28096,33.0154054 C46.2062933,33.1771622 50.5898667,33.0801081 54.52032,32.9736892 C54.8224,32.1376622 54.67136,31.1560541 54.6440533,30.1787027 C54.55872,27.1257568 54.77632,23.7986757 54.5621333,20.9270676 C53.4468267,20.5541757 52.09856,21.1611892 50.9764267,20.8036216 C50.6624,20.7040135 50.22464,20.177027 49.86368,19.8177568 C47.6603733,17.6195676 45.6183467,15.4997027 43.47648,13.3628108 C43.10784,12.995027 42.6333867,12.4782568 42.2818133,12.3752432 C42.22208,12.3863108 42.2331733,12.4663378 42.1981867,12.4995405 L42.1981867,12.4995405 Z M29.8350933,41.9358649 C27.6778667,39.896027 25.5650133,37.6339865 23.40608,35.4809189 C22.81472,34.8909324 21.84704,33.7748108 21.1805867,33.3423243 C21.1293867,33.3593514 21.0961067,33.3951081 21.0978133,33.4657703 C21.0432,35.5507297 21.0244267,38.3312432 21.01504,40.620527 C21.0133333,41.0513108 21.1370667,41.4872027 20.9322667,41.8541351 C18.4413867,42.0584595 15.1936,41.7792162 12.6498133,42.0584595 C12.7633067,42.5020135 13.21472,42.7250676 13.5560533,43.0043108 C14.6397867,43.8854595 15.7405867,44.8321622 16.81152,45.6767027 C17.85856,46.5961622 18.96448,47.5011486 20.0260267,48.3490946 C20.38272,48.6351486 20.81792,48.9007703 21.01504,49.3366622 C21.18656,50.7967297 20.87424,52.7386622 21.1797333,54.0642162 C24.1723733,54.1042297 27.37664,54.1476486 30.32832,54.1459459 C31.33952,54.1459459 32.36608,54.2438514 33.29536,54.0225 C33.46432,50.0952162 33.4114133,46.0376757 33.33632,42.0584595 C32.31744,41.8711622 30.9333333,42.0456892 29.8350933,41.9358649 L29.8350933,41.9358649 Z M50.97472,41.9358649 C50.6564267,41.8328514 50.2741333,41.2777703 49.9037867,40.9082838 C49.51296,40.5175135 49.12896,40.1352568 48.832,39.8389865 C46.6594133,37.6705946 44.6421333,35.4587838 42.3620267,33.4657703 C42.3022933,33.4887568 42.2613333,33.530473 42.2382933,33.5900676 C42.1666133,34.191973 42.1973333,34.9556351 42.1973333,35.6869459 L42.1973333,37.7838243 C42.1973333,39.2507027 42.29632,40.6767162 42.0736,41.8941486 C39.5042133,42.1631757 36.53888,41.8456216 33.8312533,42.0175946 C33.7416533,42.2636351 34.0164267,42.4568919 34.1614933,42.5948108 C34.3278933,42.7514595 34.5335467,42.9123649 34.6965333,43.0468784 C36.8896,44.8279054 39.00928,46.6268108 41.2074667,48.432527 C41.57696,48.7356081 42.12224,49.1127568 42.19648,49.4601081 C42.3483733,50.1701351 42.19648,51.0912973 42.19648,51.8847568 C42.19648,52.6697027 42.0744533,53.504027 42.3611733,54.1459459 C46.2378667,54.0940135 50.68288,54.2540676 54.55872,54.0642162 C54.7780267,53.1532703 54.6824533,52.1384595 54.6824533,51.1440811 C54.6824533,48.0962432 54.71488,44.9436892 54.6005333,42.0584595 C53.4775467,41.6779054 52.10624,42.3027973 50.97472,41.9358649 L50.97472,41.9358649 Z" id="Shape"></path>
                </g>
            </g>
        </g>
    </g>
</svg>