<?xml version="1.0" encoding="UTF-8" standalone="no"?>
<svg width="62px" height="63px" viewBox="0 0 62 63" version="1.1" xmlns="http://www.w3.org/2000/svg" xmlns:xlink="http://www.w3.org/1999/xlink">
    <!-- Generator: Sketch 40.1 (33804) - http://www.bohemiancoding.com/sketch -->
    <title>Galanteria_Drewna_logo</title>
    <desc>Created with Sketch.</desc>
    <defs></defs>
    <g id="Page-1-Home-all-icons" stroke="none" stroke-width="1" fill="none" fill-rule="evenodd">
        <g id="Desktop" transform="translate(-784.000000, -1923.000000)" fill="#000000">
            <g id="Galanteria_Drewna_logo" transform="translate(784.000000, 1923.000000)">
                <g id="Galanteria_x5F_Drewna">
                    <path d="M15.7569737,4.32327273 C15.9225789,3.73336364 16.6208947,3.51572727 17.0932368,3.26781818 C18.6040789,2.47418182 20.2968421,1.78363636 22.1119737,1.23790909 C24.5462895,0.506454545 27.2612368,0.162 30.2886316,0.0204545455 C33.1520526,-0.112909091 36.2422632,0.437727273 38.5468684,1.035 C41.0660263,1.68872727 43.1528158,2.60754545 45.1033684,3.63354545 C49.2328947,5.80418182 52.1974737,8.50827273 55.0209211,12.0370909 C58.3885,16.2458182 60.8293421,21.6188182 61.5782368,28.4375455 C61.8996579,31.3674545 61.7405789,34.1983636 61.2943421,36.9229091 C61.0903947,38.1681818 60.9394737,39.474 60.2419737,40.4541818 C59.0011579,41.3869091 56.1499737,40.8043636 54.9393421,40.2921818 C53.5329211,39.6965455 52.3345263,38.6967273 51.6598684,37.5316364 C51.4053421,37.0914545 51.2299474,36.4614545 51.0129474,35.9075455 C49.5812368,32.2543636 48.4334211,27.9752727 47.6127368,23.688 C47.1518158,21.2800909 46.5562895,18.8509091 45.8718421,16.4618182 C45.2012632,14.1218182 44.5739211,11.8145455 43.4032632,10.0063636 C42.2138421,8.172 40.7013684,6.74263636 38.7483684,5.70354545 C37.7816579,5.18972727 36.6738158,4.83872727 35.5096842,4.48609091 C34.3455526,4.13263636 33.1577632,3.762 31.9071579,3.63354545 C30.4950263,3.48790909 29.0796316,3.38318182 27.6968684,3.38972727 C24.2052895,3.40609091 20.8287368,3.98372727 17.6177895,4.44518182 C17.0475526,4.527 16.2782632,4.76263636 15.7569737,4.32327273 L15.7569737,4.32327273 Z" id="Shape"></path>
                    <path d="M12.8021842,6.02836364 C13.7876579,5.84754545 14.3048684,6.60272727 14.8253421,7.20572727 C15.6917105,8.208 16.2358421,9.28145455 16.3231316,10.9407273 C16.3941053,12.276 15.9976316,13.8289091 15.5946316,14.8377273 C15.1247368,16.0150909 14.6809474,17.1229091 14.2583684,18.126 C13.33,20.3318182 12.214,22.3437273 11.3443684,24.4587273 C10.0562368,27.5890909 8.51847368,30.8487273 7.82260526,34.8111818 C7.58928947,36.144 7.32905263,37.53 7.41797368,38.952 C7.77365789,44.6334545 10.4527105,48.4690909 13.4499211,51.4153636 C15.8075526,53.7332727 18.5575789,55.4710909 21.9912368,56.7335455 C22.9130789,57.0730909 24.7820526,57.3283636 25.1483421,58.1948182 C25.3718684,58.7258182 25.1923947,59.6953636 25.1891316,60.4276364 C25.1842368,61.2572727 25.1524211,61.8651818 24.5813684,62.1327273 C23.1325263,62.1302727 21.7954474,61.5829091 20.5342368,61.1181818 C16.9235526,59.7878182 13.5673947,57.8053636 10.9805263,55.3532727 C9.23392105,53.6972727 7.52157895,52.0077273 6.08334211,50.0350909 C3.20686842,46.0914545 1.16413158,41.3705455 0.2945,35.3798182 C-0.146842105,32.3378182 -0.0921842105,28.9448182 0.456026316,25.8799091 C1.48228947,20.1444545 3.81218421,15.5225455 6.77023684,11.7523636 C8.53152632,9.62181818 10.3156579,7.51254545 12.7206053,6.02836364 C12.7483421,6.02836364 12.7752632,6.02836364 12.8021842,6.02836364 L12.8021842,6.02836364 Z" id="Shape"></path>
                    <path d="M29.0339474,12.6049091 C30.3432895,12.4371818 31.5571842,13.5147273 31.6248947,14.7567273 C31.7105526,16.3431818 30.3416579,17.3544545 29.1954737,17.3552727 C27.9212105,17.3552727 26.5172368,16.1361818 26.9292105,14.4319091 C27.0140526,14.0784545 27.2343158,13.716 27.3338421,13.5793636 C27.6666842,13.1252727 28.365,12.6908182 29.0339474,12.6049091 L29.0339474,12.6049091 Z" id="Shape"></path>
                    <path d="M55.9925263,49.9540909 C54.5787632,52.0003636 52.8876316,53.7692727 51.1353158,55.4751818 C47.3892105,58.6464545 43.0663421,61.2400909 37.2913684,62.3765455 C36.5196316,62.2538182 36.5212632,61.2957273 36.4821053,60.3065455 C36.4502895,59.5096364 36.1990263,58.2864545 36.4413158,57.6670909 C36.6672895,57.0902727 37.6405263,56.8562727 38.1822105,56.6926364 C40.2331053,56.0732727 42.3639474,55.3131818 44.051,54.4197273 C46.5163158,53.1139091 48.7417895,52.0568182 50.933,50.4409091 C51.6141842,49.9385455 52.2912895,49.3216364 53.0377368,48.7767273 C53.7654211,48.2449091 54.4327368,47.6042727 55.0617105,47.0307273 C55.9949737,46.1806364 56.9804474,45.2380909 57.8949474,44.2300909 C58.1715,43.9249091 58.6552632,43.1721818 58.9881053,43.1738182 C59.6856053,43.1787273 58.9717895,44.6710909 58.8265789,45.0008182 C58.0271053,46.8081818 57.0138947,48.4993636 55.9925263,49.9540909 L55.9925263,49.9540909 Z" id="Shape"></path>
                </g>
            </g>
        </g>
    </g>
</svg>