<?xml version="1.0" encoding="UTF-8" standalone="no"?>
<svg width="61px" height="62px" viewBox="0 0 61 62" version="1.1" xmlns="http://www.w3.org/2000/svg" xmlns:xlink="http://www.w3.org/1999/xlink">
    <!-- Generator: Sketch 40.1 (33804) - http://www.bohemiancoding.com/sketch -->
    <title>Fathers_of_Confederation_Centre_logo</title>
    <desc>Created with Sketch.</desc>
    <defs></defs>
    <g id="Page-1-Home-all-icons" stroke="none" stroke-width="1" fill="none" fill-rule="evenodd">
        <g id="Desktop" transform="translate(-177.000000, -1258.000000)" fill="#000000">
            <g id="Fathers_of_Confederation_Centre_logo" transform="translate(177.000000, 1258.000000)">
                <g id="Fathers_x5F_of_x5F_Confederation_x5F_Centre">
                    <path d="M9.68278481,53.15725 C5.68149367,49.450425 2.79132911,44.791125 1.09491139,38.868575 C0.21543038,35.799575 -0.19535443,32.02765 0.0887974684,28.579675 C0.381443038,25.02475 1.17212658,22.082075 2.21607595,19.261075 C4.23525316,13.801975 7.62886076,9.480575 12.0038734,6.175975 C16.3696203,2.87835 22.005557,0.406875 28.8707595,0.041075 C33.7005696,-0.216225 37.7396962,0.774225 41.1340759,2.05995 C46.8719367,4.2346 51.2237848,7.871675 54.6343797,12.388375 C55.9354557,14.110425 57.0736076,16.2037 58.0774051,18.484525 C59.0611266,20.719625 59.8942785,23.334475 60.2440633,25.86175 C60.6455823,28.756375 60.7799367,31.76415 60.3984937,34.714575 C60.0386709,37.498375 59.4765443,40.055875 58.5422405,42.363825 C56.7408101,46.812325 54.2405823,50.8121 50.8045063,53.7013 C49.028557,55.1955 47.2533797,56.47115 45.2342025,57.66155 C43.2289241,58.843425 40.9325443,59.6533 38.4261392,60.379475 C35.8726329,61.118825 32.9917342,61.42805 29.9533165,61.42805 C27.0446203,61.427275 24.1521392,60.830525 21.7522911,60.10745 C16.8838734,58.640375 13.1003291,56.1596 9.68278481,53.15725 L9.68278481,53.15725 Z M33.977,28.2689 C35.5413797,27.435775 37.0447595,26.88475 39.1998354,26.6383 C45.175519,25.95475 49.3729367,28.675775 51.9650506,31.840875 C53.0205823,33.1297 53.9162785,34.528575 54.4799494,36.1894 C54.6598608,36.72105 54.6475063,37.594475 55.2536456,37.70375 C55.7856582,37.5534 55.7817975,36.85745 55.8729114,36.422675 C56.2134304,34.804475 56.4141899,33.000275 56.4141899,31.18135 C56.4157342,23.5011 53.7301899,18.2714 50.4176582,14.018975 C48.215481,11.191775 45.3469367,8.71875 41.9077722,7.107525 C38.3720886,5.45135 34.3746582,4.253975 29.412038,4.35085 C28.0684937,4.376425 26.7473418,4.559325 25.5821646,4.777875 C22.1144304,5.4281 19.2783165,6.64485 16.6854304,8.27235 C15.0430633,9.302325 13.4732785,10.5307 12.3135063,12.1551 C11.1568228,13.77485 10.1352658,15.568975 9.76,17.862975 C8.87356962,23.29495 11.5737848,26.992475 14.7504177,29.0842 C16.4221266,30.1847 18.7324051,30.935675 21.2496203,30.59855 C23.7143291,30.269175 25.3095949,29.416675 26.9357468,28.035625 C28.6746329,26.1764 30.576443,24.031975 30.4567595,20.54215 C30.3641013,17.8498 29.3579873,16.08125 28.1742785,14.563025 C27.7797089,14.05695 27.1936456,13.61055 27.0917215,12.8929 C27.2538734,12.08535 27.9503544,11.8141 28.3680886,11.2623 C28.9001013,10.8252 29.1765316,10.13235 30.0313038,10.019975 C30.794962,10.23155 31.2559367,10.971675 31.7331266,11.573075 C33.1878608,13.405175 34.1924304,15.703825 34.6348734,18.445775 C35.2348354,22.16965 34.0271899,25.35335 32.7778481,27.686875 C32.5971646,28.024775 32.2327089,28.3991 32.391,28.8517 C32.9878734,28.89045 33.5005823,28.522325 33.977,28.2689 L33.977,28.2689 Z M6.27836709,25.43395 C6.10849367,24.926325 6.05058228,23.625875 5.31086076,23.9196 C4.97806329,24.439625 4.89698734,25.096825 4.76958228,25.705975 C3.76732911,30.51175 4.49006329,36.160725 5.93012658,39.91715 C7.25977215,43.382175 9.04962025,46.117925 11.2687848,48.6142 C12.0200886,49.458175 12.8300759,50.17815 13.6670886,50.9051 C16.9386962,53.747025 21.3129367,55.951125 26.5102911,56.767975 C29.3487215,57.214375 32.401038,57.177175 35.059557,56.690475 C40.3101899,55.7287 44.5022025,53.71835 47.5166835,50.439325 C49.0131139,48.811825 50.4462278,46.987475 50.9983165,44.5377 C51.6191266,41.784125 51.2461772,38.73605 50.1466329,36.65595 C49.0702532,34.618475 47.4634051,33.01965 45.4658481,31.9579 C44.4574177,31.4216 43.2242911,30.997675 41.8683924,30.909325 C37.3034304,30.6125 34.1932025,32.7329 32.3137848,35.33535 C30.9995823,37.155825 29.996557,39.711 30.5339747,42.596325 C30.9030633,44.57645 31.7786835,46.041975 32.8550633,47.294375 C33.1554304,47.6439 33.8202532,48.204225 33.8225696,48.692475 C33.8248861,49.3582 32.9716582,49.895275 32.584038,50.284325 C32.0643797,50.8059 31.7485696,51.381725 30.9594304,51.527425 C30.2058101,51.352275 29.6853797,50.623775 29.2182278,50.013075 C27.8244937,48.18485 26.611443,45.871475 26.2014304,43.1799 C25.6076456,39.288625 26.7913544,36.2545 28.0970633,33.90005 C28.2777468,33.573 28.6012785,33.161475 28.4445316,32.735225 C27.983557,32.643 27.6106076,32.97005 27.2453797,33.16225 C26.1164937,33.75745 24.9420506,34.3077 23.6093165,34.6766 C21.7561519,35.190425 19.6250127,35.216 17.4583544,34.87035 C13.5836962,34.252675 10.9398481,32.050125 8.79249367,29.784025 C7.96706329,28.850925 6.83122785,27.08625 6.27836709,25.43395 L6.27836709,25.43395 Z" id="Shape"></path>
                </g>
            </g>
        </g>
    </g>
</svg>