<?xml version="1.0" encoding="UTF-8" standalone="no"?>
<svg width="57px" height="62px" viewBox="0 0 57 62" version="1.1" xmlns="http://www.w3.org/2000/svg" xmlns:xlink="http://www.w3.org/1999/xlink">
    <!-- Generator: Sketch 40.1 (33804) - http://www.bohemiancoding.com/sketch -->
    <title>York_Construction_72_logo</title>
    <desc>Created with Sketch.</desc>
    <defs></defs>
    <g id="Page-1-Home-all-icons" stroke="none" stroke-width="1" fill="none" fill-rule="evenodd">
        <g id="Desktop" transform="translate(-57.000000, -2498.000000)" fill="#000000">
            <g id="York_Construction_72_logo" transform="translate(57.000000, 2498.000000)">
                <g id="York_x5F_Construction_x5F_72">
                    <path d="M28.3366,0.0415853659 C28.8078,-0.147439024 29.41124,0.354609756 29.8376,0.601097561 C32.85252,2.34768293 35.64096,4.04360976 38.61712,5.78943902 C41.04684,7.21543902 43.66428,8.72460976 46.23308,10.1944634 C46.59408,10.400878 47.03336,10.6987805 47.47112,10.9407317 C47.96208,11.2129268 48.37552,11.5138537 48.52144,11.8737561 C48.84444,12.6699268 48.63392,14.3771951 48.63392,15.4198537 C48.63392,16.5048537 48.82392,18.1682683 48.55868,18.9651951 C48.3018,19.7371707 47.02272,20.212 46.26956,20.6822927 C45.866,20.9348293 45.44952,21.211561 45.03152,21.4663659 C44.59984,21.7294878 44.1066,21.8958293 43.71824,22.1385366 C42.87616,22.6640244 42.02724,23.1441463 41.20416,23.6318293 C40.35676,24.1346341 39.558,24.7153171 38.72732,25.1621707 C36.07568,26.5911951 33.70068,28.0716341 31.11136,29.566439 C30.28676,30.0427805 29.47964,30.6385854 28.5228,30.9478293 C27.55152,30.7013415 26.7368,30.062439 25.89624,29.566439 C25.05796,29.0719512 24.2364,28.5562927 23.38216,28.0731463 C21.73372,27.1416341 20.03892,26.1700488 18.35476,25.0873171 C16.73596,24.0461707 15.0366,23.172878 13.32812,22.1014878 C12.15392,21.3650488 10.85356,20.6180244 9.576,19.824878 C9.16484,19.5693171 8.59256,19.2570488 8.48768,18.9289024 C8.3524,18.5092683 8.44968,17.7637561 8.44968,17.1369512 L8.44968,13.5538049 C8.44968,13.035122 8.3448,12.2487805 8.48768,11.7996585 C8.68528,11.175122 10.23872,10.4878293 10.81404,10.1574146 C13.34636,8.70268293 15.78368,7.2524878 18.24228,5.79019512 C19.84968,4.74829268 21.52928,3.81602439 23.19444,2.84141463 C24.8482,1.87436585 26.52856,0.917146341 28.25984,0.0423414634 C28.2872,0.0415853659 28.31152,0.0415853659 28.3366,0.0415853659 L28.3366,0.0415853659 Z" id="Shape"></path>
                    <path d="M21.62124,31.4324878 C22.7658,32.178 24.07832,32.9182195 25.37184,33.6720488 C25.73512,33.883 26.3492,34.2413902 26.46092,34.5680244 C26.6836,35.223561 26.49816,36.6079756 26.49816,37.5168049 C26.49816,43.1232683 26.46092,48.7796341 26.46092,54.9856829 C26.46016,55.8877073 26.63268,57.303878 26.42292,57.8966585 C26.26332,58.3488049 25.41744,58.6852683 24.99716,58.9415854 C23.88908,59.6182927 22.98012,60.0727073 21.8462,60.7335366 C21.4586,60.9588537 20.54584,61.5478537 20.083,61.4798049 C19.6308,61.4140244 19.18392,61.0964634 18.73248,60.845439 C18.29396,60.6019756 17.89344,60.2889512 17.53168,60.0613659 C16.63944,59.5003415 15.75404,59.0618049 15.0176,58.605878 C13.24452,57.5072683 11.58772,56.621122 10.0282,55.6570976 C7.1022,53.9589024 4.17772,52.3869756 1.21144,50.5806585 C0.80256,50.3319024 0.24396,49.9893902 0.12312,49.6846829 C-0.10032,49.119122 0.04788,47.7619268 0.04788,46.8107561 C0.04788,40.9419268 0.08588,35.2674146 0.08512,29.3426341 C0.08512,28.3854146 -0.06232,27.0592195 0.1976,26.4309024 C0.4332,25.861561 1.0526,25.5371951 1.54812,25.2740732 C2.69952,24.6631463 3.60316,24.1369024 4.69908,23.482878 C5.12848,23.226561 6.0914,22.5642195 6.46228,22.5869024 C7.13336,22.6277317 7.84016,23.3104878 8.45044,23.6318293 C9.17016,24.0113902 9.79868,24.3531463 10.36412,24.714561 C12.84172,26.2970732 15.48044,27.6255366 17.8676,29.1936829 C19.10488,30.0042195 20.38472,30.6801707 21.62124,31.4324878 L21.62124,31.4324878 Z" id="Shape"></path>
                    <path d="M52.01136,52.8202195 C47.53572,55.6699512 42.75836,58.3026829 37.97872,61.031439 C37.55312,61.2749024 37.24152,61.4775366 36.74068,61.442 C36.09088,61.3096829 35.55812,60.9974146 35.01472,60.7327805 C34.50856,60.4862927 34.02368,60.1135366 33.51372,59.7997561 C33.08888,59.5381463 32.5812,59.256878 31.97624,58.9037805 C31.46476,58.6066341 30.71312,58.3586341 30.54972,57.8959024 C30.3354,57.2864878 30.51248,55.7259024 30.51248,54.947122 C30.514,48.1014146 30.48208,40.8995854 30.58772,34.5672683 C30.77088,34.0962195 31.29604,33.9079512 31.67604,33.6712927 C34.50324,31.9110976 37.4794,30.2612927 40.34232,28.4829512 C42.72948,27.0002439 45.37428,25.6513659 47.8458,24.0786829 C48.19464,23.8571463 48.60656,23.5426098 49.0466,23.2946098 C49.45396,23.0655122 50.14328,22.5929512 50.47236,22.5853902 C51.06972,22.5717805 51.76512,23.1018049 52.23556,23.4065122 C53.29652,24.0953171 54.30124,24.6041707 55.42452,25.3103659 C55.90712,25.613561 56.67396,25.985561 56.85028,26.4293902 C57.06992,26.985878 56.92552,28.4232195 56.96276,29.3033171 C57.00456,30.2809512 56.92552,31.3054634 56.92552,32.2150488 C56.92552,34.2459268 56.92476,35.9668049 56.92552,38.1126098 C56.92552,41.1869024 56.94072,43.9625366 56.92552,46.8470488 C56.9202,47.8140976 57.0114,48.8764146 56.81304,49.6090732 C56.60024,50.3954146 55.13648,50.948878 54.48668,51.3632195 C53.63016,51.909878 52.73032,52.4217561 52.01136,52.8202195 L52.01136,52.8202195 Z" id="Shape"></path>
                </g>
            </g>
        </g>
    </g>
</svg>