<?xml version="1.0" encoding="UTF-8" standalone="no"?>
<svg width="53px" height="53px" viewBox="0 0 53 53" version="1.1" xmlns="http://www.w3.org/2000/svg" xmlns:xlink="http://www.w3.org/1999/xlink">
    <!-- Generator: Sketch 40.1 (33804) - http://www.bohemiancoding.com/sketch -->
    <title>Hinds_Cosmetics_logo</title>
    <desc>Created with Sketch.</desc>
    <defs></defs>
    <g id="Page-1-Home-all-icons" stroke="none" stroke-width="1" fill="none" fill-rule="evenodd">
        <g id="Desktop" transform="translate(-543.000000, -2629.000000)" fill="#000000">
            <g id="Hinds_Cosmetics_logo" transform="translate(543.000000, 2629.000000)">
                <g id="Hinds_x5F_Cosmetics">
                    <path d="M8.73705,45.7078625 C6.1056,43.3612875 3.9041125,40.5840875 2.4042125,37.1689 C0.98315,33.9306 -0.2338625,29.4275875 0.038425,24.7927375 C0.2153125,21.781675 0.8963625,19.0674125 1.7967,16.669825 C2.2558125,15.44685 2.7348,14.31265 3.3317125,13.2480125 C3.91935,12.2006 4.6209375,11.2538875 5.346375,10.30585 C8.1865125,6.5938625 11.9303,3.6801875 16.635375,1.83115 C19.0488625,0.88245 21.8128125,0.234525 24.8536875,0.03975 C27.5911375,-0.13515 30.1676,0.290175 32.3372875,0.8075875 C35.7319375,1.6171625 38.418375,2.897775 40.97165,4.5493875 C42.665,5.6438375 44.089375,6.89 45.4494875,8.3229875 C47.435,10.4145 49.190625,12.7995 50.502375,15.6144625 C52.1804875,19.21515 53.4352625,24.1633625 52.8058875,29.4938375 C51.9453,36.780675 48.8501,41.8521125 44.4583875,45.867525 C42.297975,47.8424375 39.81625,49.458275 36.8793875,50.6646875 C34.0147375,51.8412875 30.5299875,52.64755 26.5178875,52.64755 C23.88975,52.64755 21.5021,52.205 19.2900125,51.62465 C17.1395375,51.0602 15.2739375,50.1214375 13.5024125,49.1621375 C11.7342,48.204825 10.2044875,46.961975 8.73705,45.7078625 L8.73705,45.7078625 Z M25.973975,1.222975 C25.3492375,1.442925 24.876875,1.9311875 24.3747,2.3108 C22.8410125,3.4681875 21.2841375,4.8342625 20.15325,6.148 C18.5784875,7.9771625 17.0448,10.4827375 16.7639,13.5355375 C16.6837375,14.4054 16.7003,15.2593625 16.7957,16.06165 C17.252825,19.9233625 19.2873625,22.6727375 22.1679125,24.1203 C23.3306,24.704625 24.7834625,25.239925 26.453625,25.239925 C28.1754625,25.239925 29.527625,24.7463625 30.706875,24.1203 C31.819875,23.5300125 32.863975,22.6223875 33.6172375,21.6577875 C35.214525,19.6133125 36.1599125,16.5406375 35.6319,13.2148875 C35.2019375,10.5012875 33.563575,7.900975 32.018625,6.083075 C31.244825,5.1728 30.4557875,4.3281125 29.3321875,3.3966375 C28.6233125,2.809 27.813075,2.259125 26.996875,1.7013 C26.67755,1.482675 26.4065875,1.1872 26.0700375,1.22165 C26.0422125,1.2262875 25.9998125,1.2143625 25.973975,1.222975 L25.973975,1.222975 Z M6.3706,9.9858625 C4.869375,11.77925 3.6801875,13.701825 2.6924,15.9019875 C2.3671125,16.627425 2.15445,17.4509125 1.893425,18.3009 C1.6370375,19.1336625 1.3428875,19.982325 1.1891875,20.7952125 C0.8393875,22.64955 0.6459375,24.5515875 0.645275,26.6159375 C0.645275,28.6365625 0.934125,30.55185 1.3813125,32.2763375 C1.819225,33.9670375 2.29225,35.641175 3.0123875,37.0735 C4.0856375,39.2094 5.290725,41.0809625 6.8177875,42.8617625 C7.2239,43.33545 7.8910375,44.3133 8.5124625,44.396775 C8.902675,44.449775 9.2624125,43.9138125 9.4711,43.6932 C9.7698875,43.3785125 10.0017625,43.17645 10.2389375,42.8299625 C11.2095,41.847475 11.9886,40.6039625 12.76505,39.3120875 C14.3384875,36.695875 15.379275,34.0293125 15.898675,30.293475 C16.1471125,28.5080375 16.2756375,26.5318 15.9947375,24.633075 C15.469375,21.084725 14.732675,18.01735 13.2765,15.1984125 C12.294675,13.2970375 10.9186625,11.4433625 9.5983,9.7619375 C9.194175,9.247175 8.4793375,8.2236125 7.999025,8.290525 C7.5001625,8.592625 6.8853625,9.3710625 6.3706,9.9858625 L6.3706,9.9858625 Z M51.4941375,33.2674375 C52.2427625,30.2649875 52.5899125,26.676225 52.06985,23.0974 C51.583575,19.7564125 50.5997625,17.1183375 49.25555,14.5909 C48.2849875,12.7677 47.15145,11.0929 45.769475,9.602275 C45.244775,9.0358375 44.5498125,7.8777875 43.819075,8.4833125 C43.352675,8.8688875 42.91675,9.570475 42.4761875,10.1143875 C41.1048125,11.807075 39.9401375,13.579925 39.054375,15.646925 C38.4852875,16.9739125 37.896325,18.4711625 37.5829625,20.1241 C37.260325,21.826725 36.92775,23.602225 36.8475875,25.3691125 C36.676,29.1400625 37.6372875,32.5837375 38.638325,35.4430875 C39.5320375,37.9957 40.9829125,40.1534625 42.5079875,42.0309875 C43.0413,42.687525 43.344725,43.05985 43.9469375,43.6620625 C44.147675,43.8628 44.5233125,44.3696125 44.8426375,44.3656375 C45.173225,44.3616625 45.488575,43.8700875 45.7065375,43.6302625 C46.52075,42.735225 47.258775,41.942875 47.8808625,40.943825 C49.3211375,38.8085875 50.7528,36.240075 51.4941375,33.2674375 L51.4941375,33.2674375 Z M30.675075,28.886325 C29.5581,28.2867625 28.0668125,27.752125 26.3893625,27.8309625 C24.6768,27.9117875 23.3325875,28.37885 22.1361125,29.0459875 C21.0231125,29.66675 19.9684125,30.4803 19.19395,31.4760375 C17.6483375,33.4642 16.5499125,36.396425 17.1474875,39.791075 C17.907375,44.1099125 20.7660625,47.0818875 23.639325,49.3847375 C24.1355375,49.7829 24.6496375,50.1638375 25.1743375,50.5361625 C25.6990375,50.9084875 26.18465,51.4424625 26.869675,51.5272625 C27.5248875,51.342425 28.0469375,50.9124625 28.53255,50.5361625 C29.029425,50.1505875 29.5150375,49.74845 29.9715,49.320475 C31.6827375,47.8384625 33.33435,45.9794875 34.512275,43.884 C35.683575,41.802425 36.499775,38.7383625 35.8233625,35.7292875 C35.421225,33.937225 34.631525,32.400225 33.616575,31.2521125 C32.763275,30.370325 31.846375,29.5150375 30.675075,28.886325 L30.675075,28.886325 Z" id="Shape"></path>
                </g>
            </g>
        </g>
    </g>
</svg>