<?xml version="1.0" encoding="UTF-8" standalone="no"?>
<svg width="68px" height="67px" viewBox="0 0 68 67" version="1.1" xmlns="http://www.w3.org/2000/svg" xmlns:xlink="http://www.w3.org/1999/xlink">
    <!-- Generator: Sketch 40.1 (33804) - http://www.bohemiancoding.com/sketch -->
    <title>st_lukes_hospital_logo</title>
    <desc>Created with Sketch.</desc>
    <defs></defs>
    <g id="Page-1-Home-all-icons" stroke="none" stroke-width="1" fill="none" fill-rule="evenodd">
        <g id="Desktop" transform="translate(-296.000000, -1254.000000)" fill="#000000">
            <g id="st_lukes_hospital_logo" transform="translate(296.000000, 1254.000000)">
                <g id="st_x5F_lukes_x5F_hospital">
                    <path d="M53.4445128,26.2396364 C52.6197949,26.3892987 51.5919487,26.3249091 50.6103077,26.3249091 C49.6121026,26.3249091 48.5990769,26.4214935 47.8179487,26.1978701 C47.5224103,25.0031818 47.6488205,23.6788442 47.6488205,22.3553766 L47.6488205,18.3432078 C47.6488205,15.651026 47.8318974,12.864 47.3524103,10.7008571 C47.3515385,10.6956364 47.3175385,10.6434286 47.3096923,10.6155844 C46.8755385,9.12679221 45.7221538,7.85901299 44.5173333,7.0262987 C43.1704103,6.09525974 41.5044103,5.71762338 39.4827179,5.71762338 C35.4402051,5.71762338 31.0385128,5.78723377 26.8748205,5.63235065 C26.6638462,4.86924675 26.7475385,3.86337662 26.7475385,2.88796104 C26.7475385,1.92472727 26.6568718,0.93538961 26.8748205,0.186207792 C27.7195897,-0.0417662338 28.6393333,0.0591688312 29.5407692,0.0591688312 L32.3331282,0.0591688312 C35.024359,0.0591688312 37.6223077,0.0713506494 40.0328205,0.0591688312 C40.7049744,0.0556883117 41.3718974,-0.0321948052 42.0213846,0.0165324675 C43.9759487,0.164454545 46.0142051,0.929298701 47.2687179,1.91776623 C47.7281538,2.27974026 48.2643077,2.53816883 48.6644615,2.88796104 C50.3949744,4.39850649 51.7663077,6.14572727 52.6415897,8.41937662 C53.1010256,9.61232468 53.4898462,10.8583506 53.5308205,12.3045065 C53.6319487,15.9616623 53.5735385,20.3123117 53.5726667,24.0016623 C53.5717949,24.7369221 53.6685641,25.5252597 53.4445128,26.2396364 L53.4445128,26.2396364 Z" id="Shape"></path>
                    <path d="M46.2522051,26.2396364 C45.3568718,26.4032208 44.3386154,26.3127273 43.3744103,26.3249091 C42.4014872,26.3370909 41.3518462,26.5015455 40.4974872,26.2396364 C40.2638462,25.2407273 40.3710769,24.1069481 40.3710769,22.9888312 C40.3710769,19.6884286 40.4007179,16.4663377 40.2437949,13.1911688 C39.3066154,12.8918442 38.186359,13.0232338 37.1123077,13.0232338 C34.8255897,13.0214935 32.5693846,13.0023506 30.3428205,13.0232338 C29.1528205,13.0336753 27.9750256,13.2033506 26.8730769,12.937961 C26.6333333,12.1583247 26.7885128,11.1402727 26.7885128,10.1509351 C26.7885128,9.17377922 26.7205128,8.15398701 26.8730769,7.32127273 C30.9487179,6.99845455 35.6877949,7.33954545 39.6928205,7.15333766 C41.8182564,7.05327273 43.3194872,7.81811688 44.3473333,8.75785714 C45.181641,9.52096104 45.9217949,10.6677922 46.1667692,11.926 C46.4317949,13.286013 46.3350256,14.8914026 46.3350256,16.6960519 C46.3350256,18.2579351 46.3167179,19.8946494 46.3777436,21.5104805 C46.4082564,22.3397143 46.3010256,23.1524156 46.3350256,23.959026 C46.3698974,24.7421429 46.4963077,25.5444026 46.2522051,26.2396364 L46.2522051,26.2396364 Z" id="Shape"></path>
                    <path d="M26.5784103,13.3182078 C26.8015897,14.1135065 26.7056923,15.1707143 26.7056923,16.1887662 C26.7056923,17.2068182 26.8015897,18.264026 26.5784103,19.0610649 C25.3814359,19.289039 24.106,19.1872338 22.8131282,19.1872338 L18.9205641,19.1872338 C16.2685641,19.188974 13.5633846,18.9018312 11.4318462,19.4830779 C9.99861538,19.8755065 8.58717949,20.8900779 7.6665641,21.9316234 C6.70758974,23.0175455 6.01625641,24.5594156 5.97441026,26.4084416 C5.87764103,30.5398182 6.2054359,35.3150909 5.93169231,39.5848182 C4.32846154,39.7788571 1.98682051,39.6953247 0.177846154,39.5848182 C-0.0523076923,38.1282208 0.0505641026,36.5019481 0.0505641026,34.8547922 L0.0505641026,30.083 C0.0505641026,28.3731948 -0.0618974359,26.8382857 0.0505641026,25.3956104 C0.379230769,21.1998442 2.60492308,17.9533896 5.21246154,15.9790649 C6.66923077,14.8757403 8.13210256,14.1979091 10.1633846,13.6558182 C12.5991795,13.004961 16.2851282,13.2346753 19.5142564,13.2346753 C21.9134359,13.2320649 24.2925641,13.1633247 26.5784103,13.3182078 L26.5784103,13.3182078 Z" id="Shape"></path>
                    <path d="M26.5784103,20.7073506 C26.8015897,21.4895974 26.7056923,22.4989481 26.7056923,23.4943766 C26.7056923,24.4610909 26.7736923,25.4739221 26.6211282,26.2814026 C25.6046154,26.5111169 24.475641,26.4075714 23.3632308,26.4075714 C20.1218974,26.4075714 16.562359,26.3397013 13.4204103,26.4928442 C13.1911282,27.5074156 13.294,28.6342338 13.294,29.7453896 C13.294,32.9796623 13.3628718,36.5332727 13.2085641,39.6683506 C12.3655385,39.7927792 11.3455385,39.7858182 10.3734872,39.7518831 C9.42235897,39.7196883 8.44333333,39.7840779 7.6665641,39.5839481 C7.38061538,38.9496234 7.4974359,38.2213247 7.4974359,37.5139091 C7.4965641,33.9602987 7.35533333,29.922026 7.4974359,26.3658052 C7.55061538,25.0388571 7.98215385,23.9424935 8.63948718,23.0723636 C9.62897436,21.7671688 11.1581026,20.7256234 13.2521538,20.5811818 C15.7995385,20.4062857 18.5648718,20.6238182 21.2064103,20.6238182 C22.1514359,20.6238182 23.0807692,20.5672597 23.9978974,20.5811818 C24.8688205,20.5942338 25.7528205,20.4880779 26.5784103,20.7073506 L26.5784103,20.7073506 Z" id="Shape"></path>
                    <path d="M59.495641,26.5354805 C59.8609231,27.4447662 59.7066154,28.6551169 59.7066154,29.8715584 C59.7066154,32.2052468 59.7493333,34.4197273 59.7493333,36.7542857 C59.7493333,37.942013 59.8452308,39.1628052 59.7493333,40.260039 C59.6133333,41.8184416 58.786,43.1419091 57.8034872,44.0172597 C56.9299487,44.796026 55.5682051,45.5147532 54.1646154,45.6217792 C52.0077949,45.787974 49.6269231,45.6522338 47.3105641,45.6644156 C46.176359,45.6713766 45.0386667,45.653974 43.9253846,45.6644156 C42.7798462,45.6765974 41.6255897,45.7575195 40.5410769,45.5382468 C40.319641,44.7551299 40.4137949,43.710974 40.4137949,42.7085844 C40.4137949,41.7192468 40.3152821,40.6881429 40.5410769,39.9215584 C44.6629231,39.5430519 49.4429744,40.0355455 53.5717949,39.6683506 C53.8838974,38.7538442 53.7060513,37.6513896 53.6990769,36.5428442 C53.6807692,33.8445714 53.6982051,31.0166494 53.6990769,28.0555974 C53.6990769,27.5422208 53.6049231,26.5755065 53.8673333,26.491974 C53.8987179,26.4528182 53.9440513,26.4293247 53.9946154,26.4067013 L56.8296923,26.4067013 C57.7755897,26.4075714 58.7267179,26.3127273 59.495641,26.5354805 L59.495641,26.5354805 Z" id="Shape"></path>
                    <path d="M66.9425128,26.5354805 C67.2432821,27.5517922 67.1107692,28.6716494 67.1107692,29.7453896 C67.1098974,33.071026 67.1534872,36.4714935 67.1534872,39.4151429 C67.1534872,43.6779091 65.4970769,46.6476623 63.2609231,48.9152208 C60.9855385,51.2245455 57.9813333,52.7611948 53.8254872,52.9273896 C51.6242051,53.0161429 49.3462051,52.9273896 47.0987179,52.9273896 C44.8991795,52.9273896 42.7135897,53.0361558 40.5410769,52.8847532 C40.2690769,52.0468182 40.455641,50.9791688 40.455641,49.9715584 C40.4565128,48.9709091 40.2751795,47.931974 40.5410769,47.0992597 C41.2576923,46.879987 42.0597436,46.9730909 42.8251795,46.9730909 C45.0857436,46.9730909 47.4945128,46.9287143 49.8065128,46.9304545 C51.5492308,46.9304545 53.1167179,46.9983247 54.5028718,46.8451818 C56.7869744,46.5937143 58.7040513,45.2189091 59.7920513,43.677039 C60.4772821,42.7068442 60.9157949,41.5626234 61.0613846,40.2147922 C61.2095897,38.8417273 61.1032308,37.2372078 61.1032308,35.570039 L61.1032308,28.475 C61.1032308,27.8041299 60.9035897,26.9679351 61.399641,26.4475974 C62.1441538,26.3745065 63.3263077,26.404961 64.3192821,26.404961 C65.2625641,26.4075714 66.2058462,26.310987 66.9425128,26.5354805 L66.9425128,26.5354805 Z" id="Shape"></path>
                    <path d="M19.3006667,39.9641948 C19.5674359,40.9718052 19.4811282,42.0855714 19.4697949,43.1732338 C19.448,45.3346364 19.4575897,47.476026 19.5125128,49.7192208 C19.5395385,50.8495195 19.4610769,51.9798182 19.5125128,53.0552987 C19.6171282,55.2428052 20.4496923,56.8012078 21.6702051,58.0385325 C22.877641,59.2619351 24.4817436,60.1355455 26.5784103,60.2765065 C28.7971282,60.4244286 31.1579487,60.2338701 33.5170256,60.2765065 C34.6704103,60.2973896 35.8272821,60.2338701 36.9858974,60.2338701 C38.0826154,60.2338701 39.231641,60.1033506 40.2865128,60.4018052 C40.4373333,61.264974 40.3710769,62.3204416 40.3710769,63.3585065 C40.3710769,64.3748182 40.4617436,65.3998312 40.2865128,66.1864286 C35.4837949,66.4091818 31.3732821,66.3134675 27.0012308,66.3134675 C22.6169744,66.3134675 19.6633333,64.6054026 17.4393846,62.3857013 C15.261641,60.2138571 13.4622564,57.3537403 13.4622564,52.8838831 C13.4622564,49.7348831 13.4195385,46.3718312 13.4195385,42.9182857 C13.4195385,41.895013 13.2233846,40.0172727 13.7159487,39.8780519 C14.0733846,39.7762468 14.7289744,39.8867532 15.2389744,39.8780519 C16.460359,39.8606494 17.9912308,39.7057662 19.3006667,39.9641948 L19.3006667,39.9641948 Z" id="Shape"></path>
                    <path d="M26.6211282,39.9641948 C26.8495385,40.9926883 26.7484103,42.1212468 26.7484103,43.2576364 C26.7484103,46.571961 26.7022051,50.1116494 26.8756923,53.0126623 C27.7806154,53.2406364 28.7378462,53.1388312 29.6680513,53.1388312 C33.0793846,53.1388312 36.7574872,53.0213636 40.2455385,53.1814675 C40.4687179,53.9497922 40.3728205,54.9791558 40.3728205,55.9684935 C40.3728205,56.9560909 40.4704615,57.9906753 40.2455385,58.7555195 C37.9073846,58.8677662 35.5770769,58.9121429 33.3069231,58.8407922 C30.9434872,58.765961 28.6341026,59.0600649 26.2828718,58.8834286 C23.5654872,58.6780779 21.1924615,56.2947922 20.9518462,53.5625844 C20.8585641,52.4923247 20.9518462,51.2889351 20.9518462,50.0994675 L20.9518462,41.5269481 C20.9518462,41.1058052 20.8542051,40.0633896 21.1209744,39.9650649 C21.152359,39.9241688 21.1985641,39.9006753 21.2473846,39.8797922 C23.0127692,39.9337403 24.9961026,39.771026 26.6211282,39.9641948 L26.6211282,39.9641948 Z" id="Shape"></path>
                </g>
            </g>
        </g>
    </g>
</svg>