<?xml version="1.0" encoding="UTF-8" standalone="no"?>
<svg width="63px" height="57px" viewBox="0 0 63 57" version="1.1" xmlns="http://www.w3.org/2000/svg" xmlns:xlink="http://www.w3.org/1999/xlink">
    <!-- Generator: Sketch 40.1 (33804) - http://www.bohemiancoding.com/sketch -->
    <title>Agroinform_76_logo</title>
    <desc>Created with Sketch.</desc>
    <defs></defs>
    <g id="Page-1-Home-all-icons" stroke="none" stroke-width="1" fill="none" fill-rule="evenodd">
        <g id="Desktop" transform="translate(-906.000000, -1383.000000)" fill="#000000">
            <g id="Agroinform_76_logo" transform="translate(906.000000, 1383.000000)">
                <g id="Agroinform_x5F_76">
                    <path d="M31.1810127,56.061875 C30.9521392,53.4628333 31.2559747,50.333375 31.0271013,47.7319583 C30.1267595,47.5324583 29.0103038,47.5791667 27.909,47.5791667 C26.8268354,47.5791667 25.7008101,47.5174167 24.7526203,47.6551667 C24.4862658,48.23625 24.5987089,48.963 24.5987089,49.6810417 C24.5987089,51.7377917 24.6896203,54.1587083 24.4830759,56.0626667 C22.7876582,56.2154583 20.7421519,56.14025 18.7476835,56.14025 C18.1144937,56.14025 17.4549873,56.228125 16.8999494,56.0254583 C16.7133418,55.0469583 16.8225949,54.0320417 16.8225949,53.0060417 C16.8225949,46.8864583 16.8608734,40.529375 16.8608734,34.31875 C16.8608734,33.3014583 16.7675696,32.27625 16.9765063,31.3009167 C18.1344304,31.1615833 19.4829494,31.2249167 20.7876076,31.2249167 C22.1050253,31.2249167 23.4399873,31.133875 24.5596329,31.3397083 C24.8076456,32.6095417 24.633,34.097875 24.6369873,35.427875 C24.6401772,36.7562917 24.5412911,38.2509583 24.7526203,39.517625 C25.6577468,39.6989167 26.761443,39.6704167 27.8316456,39.6704167 C28.9201899,39.6704167 30.037443,39.7321667 31.0271013,39.5928333 C31.2328481,38.980875 31.1427342,38.27075 31.1427342,37.5669583 C31.1427342,35.532375 31.1331646,33.3006667 31.2583671,31.3777083 C32.3277722,31.1346667 33.6204684,31.2945833 34.8382025,31.300125 C36.0391899,31.3064583 37.2792532,31.219375 38.2641266,31.4149167 C38.4730633,32.5248333 38.3797595,33.725 38.3797595,34.9307083 C38.3797595,37.2669167 38.341481,39.6917917 38.341481,42.1142917 C38.341481,43.3065417 38.2505696,44.4924583 38.4571139,45.5936667 C38.9044937,45.6150417 39.1620759,45.170125 39.4196582,44.9057083 C41.3622911,42.9035833 43.3854684,40.7803333 45.3097595,38.714875 C47.161481,36.8315 49.3441519,34.6655 51.2764177,32.59925 C51.5036962,32.3562083 51.9678228,31.8954583 51.9694177,31.6065 C51.9726076,30.92725 50.992519,30.6865833 50.8146835,30.1545833 C46.0298734,25.424375 41.0297468,20.40125 36.1093671,15.51825 C34.9067848,14.3228333 33.7855443,13.0427083 32.4912532,11.772875 C32.1379747,11.4253333 31.574962,10.6875 31.1818101,10.6645417 C30.7432025,10.6384167 30.4760506,11.117375 30.2192658,11.3525 C29.8843291,11.658875 29.5804937,11.834625 29.3723544,12.15525 C28.8244937,12.6935833 28.3021519,13.2580417 27.7558861,13.79875 C20.7612911,20.9791667 13.7906203,28.1880833 6.69793671,35.2727083 C6.12375949,35.7857083 5.73060759,36.4784167 4.92675949,36.7634167 C4.30872152,36.6478333 3.93550633,36.0865417 3.54075949,35.6930833 C2.71617722,34.8752917 1.94582278,34.0511667 1.11565823,33.209625 C0.716126582,32.8050833 0.212924051,32.4227083 0,31.8725 C0.0590126582,31.3682083 0.519949367,31.0499583 0.846911392,30.725375 C1.18264557,30.3912917 1.41949367,29.9954583 1.73210127,29.6550417 C3.58940506,27.6386667 5.68834177,25.7647917 7.58312658,23.7317917 C13.0633291,18.0555417 19.1432278,11.6818333 25.0213671,5.84804167 C26.4942911,4.38504167 27.8396203,2.8595 29.371557,1.33791667 C29.8412658,0.872416667 30.5845063,-0.0150416667 31.1036582,-6.2135491e-14 C32.2033671,0.0340416667 32.482481,1.3775 33.2974937,1.79708333 C34.3876329,3.16825 35.7608734,4.27104167 36.9546835,5.54166667 C40.5050127,9.32029167 44.4556709,12.7933333 48.0028101,16.6234167 C49.1902405,17.905125 50.4598101,19.1005417 51.6982785,20.3315833 C54.1624557,22.7778333 56.5708101,25.2454583 59.0509367,27.70675 C59.6641899,28.31475 60.3117342,28.9100833 60.8986709,29.54025 C61.4856076,30.1727917 62.2798861,30.6628333 62.6307722,31.490125 C62.4361899,32.2184583 61.7814684,32.7148333 61.2830506,33.209625 C57.7303291,36.7365 54.0843038,40.3100833 50.6201013,43.985 C47.1551013,47.4303333 43.4261392,51.1084167 39.9571519,54.80075 C39.5472532,55.2369583 38.8303291,56.076125 38.3406835,56.213875 C37.8518354,56.3532083 37.1731899,56.2202083 36.5703038,56.213875 C35.329443,56.2012083 34.1196835,56.213875 32.8748354,56.213875 C32.2855063,56.2146667 31.6658734,56.3152083 31.1810127,56.061875 L31.1810127,56.061875 Z" id="Shape"></path>
                </g>
            </g>
        </g>
    </g>
</svg>