<?xml version="1.0" encoding="UTF-8" standalone="no"?>
<svg width="64px" height="62px" viewBox="0 0 64 62" version="1.1" xmlns="http://www.w3.org/2000/svg" xmlns:xlink="http://www.w3.org/1999/xlink">
    <!-- Generator: Sketch 40.1 (33804) - http://www.bohemiancoding.com/sketch -->
    <title>Wagen-Shuzo_logo</title>
    <desc>Created with Sketch.</desc>
    <defs></defs>
    <g id="Page-1-Home-all-icons" stroke="none" stroke-width="1" fill="none" fill-rule="evenodd">
        <g id="Desktop" transform="translate(-421.000000, -1255.000000)" fill="#000000">
            <g id="Wagen-Shuzo_logo" transform="translate(421.000000, 1255.000000)">
                <g id="Wagen-Shuzo">
                    <path d="M40.5022785,20.420787 C38.1026835,22.8724513 34.4028354,24.8513293 29.5064304,23.9585596 C25.6583291,23.2575039 22.5774177,20.8553928 20.972557,17.4581563 C20.1146329,15.6425601 19.641519,13.3988568 19.782481,11.2047066 C19.923443,8.99349722 20.7003544,7.17302687 21.7113924,5.60925827 C23.6565063,2.59707439 26.828962,0.224207861 31.2708861,0.0138099045 C34.2124557,-0.125101488 36.4330127,0.820470797 38.2873924,2.02924362 C40.1838987,3.26644859 41.4963038,4.91713835 42.5138228,6.84321386 C43.5888608,8.87895625 43.9890633,11.7449176 43.4989367,14.4134786 C43.0404051,16.8992614 41.9289114,18.8716407 40.5022785,20.420787 L40.5022785,20.420787 Z M29.3427848,6.51421319 C27.5232405,7.30787653 26.1589873,8.68642994 25.7320506,10.9163233 C25.0329114,14.5678246 27.372557,17.2891881 29.9576709,18.0755403 C32.0105316,18.6994231 34.1938228,18.0568563 35.5386329,16.9642492 C36.8494177,15.8992618 37.8912405,14.3127475 37.8774684,12.0682318 C37.8620759,9.52071064 36.4006076,7.66368465 34.7592911,6.76035443 C33.8859747,6.28025716 32.8157975,6.05198756 31.6403038,6.06092338 C30.6908354,6.06904686 29.9941266,6.22989163 29.3427848,6.51421319 L29.3427848,6.51421319 Z" id="Shape"></path>
                    <path d="M10.9205063,14.2900018 C14.784,14.0211148 17.8973165,15.5328932 19.8237975,17.3338672 C20.9134177,18.3533631 21.7365063,19.2201377 22.4907342,20.6669283 C23.1801519,21.9894297 23.667038,23.5962527 23.8031392,25.315992 C24.1182785,29.2802469 22.6592405,32.1177761 20.8494177,34.2445014 C19.0663291,36.3387328 16.4261266,38.0349141 12.9304304,38.2761812 C9.26541772,38.5296336 6.05893671,37.0869047 4.02713924,35.2315034 C1.94673418,33.3314231 0.341873418,30.7481586 0.0477974684,27.2493786 C-0.281113924,23.3371139 1.17792405,20.3517375 2.9196962,18.3216815 C3.84729114,17.242072 4.864,16.4126653 6.24364557,15.6474342 C7.46693671,14.9683118 9.19412658,14.4102292 10.9205063,14.2900018 L10.9205063,14.2900018 Z M5.13458228,22.3956034 C4.71736709,23.1348394 4.36820253,24.0812241 4.23210127,25.1518978 C3.77681013,28.7367866 5.39787342,31.1673298 7.51392405,32.6807328 C8.86197468,33.6458015 11.001519,34.4443389 13.3006582,34.0381652 C15.1380253,33.7140386 16.4593418,32.7847133 17.5270886,31.6929185 C18.630481,30.5629434 19.4389873,29.0202958 19.6601519,27.2493786 C19.9129114,25.2282585 19.308557,23.3704202 18.3882532,22.0243606 C17.1228354,20.1722087 14.9654684,18.3614866 11.7411646,18.4451583 C8.36860759,18.5328918 6.24607595,20.4256611 5.13458228,22.3956034 L5.13458228,22.3956034 Z" id="Shape"></path>
                    <path d="M50.8427342,14.4134786 C54.5304304,14.1242829 57.6802025,15.8618938 59.5823797,17.6222505 C61.5258734,19.4215998 63.2247089,22.2867488 63.3567595,25.8098992 C63.5066329,29.7977122 62.0783797,32.4865818 60.1980759,34.6141195 C59.3053165,35.6238672 58.0569114,36.5020147 56.7509873,37.1648901 C55.3559494,37.8732569 53.7721519,38.2964899 52.0328101,38.399658 C48.1336709,38.6303646 45.4294684,37.160016 43.334481,35.2315034 C41.4047595,33.4548998 39.6500253,30.6157459 39.5187848,27.0852845 C39.372962,23.1811432 40.7639494,20.2380089 42.6774684,18.2810642 C44.6817215,16.2306995 46.9776203,14.7164841 50.8427342,14.4134786 L50.8427342,14.4134786 Z M55.3146329,25.3168044 C54.8528608,23.6636775 53.3395443,22.104783 50.9237468,22.354986 C50.2327089,22.4264726 49.7571646,22.7270411 49.1601013,22.97237 C48.4666329,23.5393884 47.7132152,24.3233036 47.4361519,25.3590464 C46.9776203,27.0787857 47.7739747,28.5897517 48.6675443,29.514203 C51.6293671,31.9666795 56.4293671,29.303805 55.3146329,25.3168044 L55.3146329,25.3168044 Z" id="Shape"></path>
                    <path d="M19.1667848,37.5361328 C22.8010127,37.3622905 25.8989367,39.0893409 27.7832911,40.9098112 C29.7446076,42.8050175 31.2635949,45.579996 31.4353418,49.2209367 C31.5244557,51.1145183 31.0189367,52.8415687 30.4502278,54.2404308 C29.8596456,55.6912831 29.0154937,56.8098854 28.0700759,57.8196331 C26.1460253,59.8773089 23.3381266,61.4353911 19.8229873,61.5231246 C16.019443,61.6173569 13.305519,60.1713786 11.2883038,58.1494461 C9.27108861,56.1267013 7.72698734,53.6376691 7.55443038,49.9211801 C7.37863291,46.1291428 8.95756962,43.12427 10.8378734,41.2396243 C11.827038,40.2477482 12.8518481,39.2989265 14.2428354,38.6474239 C15.6265316,37.9991708 17.1682025,37.6311774 19.1667848,37.5361328 L19.1667848,37.5361328 Z M15.4742278,40.2924273 C14.4226835,40.7481541 13.510481,41.285928 12.8072911,41.9382429 C12.4808101,42.2420608 12.2604557,42.6100542 11.9866329,42.9260573 C10.3185823,44.8529451 9.06126582,47.8431956 9.73043038,51.4427066 C9.96941772,52.7319018 10.4344304,53.8204473 11.0428354,54.8163851 C12.6509367,57.4524521 15.4385823,59.4297055 19.2081013,59.5483082 C21.5469367,59.6214195 23.8517468,58.7457091 25.4444557,57.5320622 C28.3438987,55.3224775 30.7629367,50.7034706 28.7270886,45.7237815 C27.9866329,43.9130593 26.6361519,42.3167968 25.1989873,41.3216713 C23.7164557,40.2956767 21.6482025,39.389097 19.084962,39.5109491 C17.7255696,39.5759369 16.4893165,39.8529474 15.4742278,40.2924273 L15.4742278,40.2924273 Z" id="Shape"></path>
                    <path d="M43.0468861,37.6181799 C45.9754937,37.415093 48.448,38.3208603 50.227038,39.5109491 C52.1616203,40.8050184 53.4383797,42.3777229 54.4121519,44.3663491 C55.4620759,46.5125707 55.9538228,49.2981097 55.3972658,51.9780435 C54.4105316,56.7221519 51.0809114,60.0527759 46.534481,61.2355536 C44.0611646,61.8781204 41.1819747,61.5653666 38.9030886,60.57674 C36.934481,59.7237753 35.2291646,58.3403478 33.9378228,56.5036305 C32.6894177,54.7270269 31.7294177,52.5531854 31.7229367,49.6742265 C31.7132152,46.0649674 33.2945823,43.255058 35.0460759,41.3216713 C35.8934684,40.3866596 37.0519494,39.4987639 38.4105316,38.8529478 C39.7261772,38.2274404 41.2249114,37.7449061 43.0468861,37.6181799 L43.0468861,37.6181799 Z M42.3080506,48.5215057 C41.0037468,50.2176869 43.5799494,52.4459556 45.0981266,50.7847053 C45.6360506,50.2152498 45.6563038,48.9593609 45.0981266,48.3980289 C44.7157468,48.0820258 44.1753924,47.7042843 43.4576203,47.8635043 C42.9561519,47.9682971 42.5186835,48.2469323 42.3080506,48.5215057 L42.3080506,48.5215057 Z" id="Shape"></path>
                </g>
            </g>
        </g>
    </g>
</svg>