<?xml version="1.0" encoding="UTF-8" standalone="no"?>
<svg width="60px" height="61px" viewBox="0 0 60 61" version="1.1" xmlns="http://www.w3.org/2000/svg" xmlns:xlink="http://www.w3.org/1999/xlink">
    <!-- Generator: Sketch 40.1 (33804) - http://www.bohemiancoding.com/sketch -->
    <title>Engineering_Concepts_logo</title>
    <desc>Created with Sketch.</desc>
    <defs></defs>
    <g id="Page-1-Home-all-icons" stroke="none" stroke-width="1" fill="none" fill-rule="evenodd">
        <g id="Desktop" transform="translate(-666.000000, -2380.000000)" fill="#000000">
            <g id="Engineering_Concepts_logo" transform="translate(666.000000, 2380.000000)">
                <g id="Engineering_x5F_Concepts" transform="translate(0.000000, 0.000000)">
                    <path d="M59.2780174,29.0805485 C54.3292004,29.2180156 49.1234136,29.2742522 44.1949042,29.1188206 C43.9762065,27.927699 44.2589514,26.2359159 44.0425969,25.0432323 C42.2648968,24.8995167 40.4426762,24.9167001 38.6345146,24.9666881 C36.8044833,25.0166762 34.9588308,24.9666881 33.1116161,24.9666881 C22.670362,24.9674692 12.1455342,24.928416 1.30828101,24.928416 C0.893536405,24.928416 0.438176506,25.0135519 0.0515501772,24.8143808 C-0.117159494,24.0629979 0.157774785,23.1257219 0.470981165,22.6055338 C4.11151716,22.5352381 7.74736678,22.5680427 11.4019619,22.5672617 C15.0268767,22.5672617 18.6908446,22.4157354 22.2954516,22.5672617 C24.1043942,22.6438059 25.9664491,22.6172497 27.7800781,22.5672617 C33.1412965,22.4180786 38.6204555,22.7461252 44.0051058,22.4907175 C44.1620995,19.0235775 44.1230464,15.0424979 44.0051058,11.4449204 C41.0183198,11.3621277 37.9057826,11.3683762 34.7495058,11.3683762 L15.6298575,11.3683762 L8.50734137,11.3683762 C7.75049104,11.3683762 6.95693073,11.4558553 6.22195018,11.254341 C6.3086482,10.6302714 6.81477722,10.4248517 7.06003109,9.95933803 C12.143191,4.38176506 18.8369034,0.492850937 28.8462295,0.0195265823 C31.1792655,-0.0913844051 33.5497926,0.283525975 35.5875867,0.74279119 C41.699407,2.11902471 46.4451475,4.85899473 50.1372337,8.55108091 C53.2521141,11.6651803 55.8507117,15.2119887 57.4886014,19.8632206 C57.8088374,20.7723782 58.1532863,21.7182459 58.4024455,22.6812969 C58.9116987,24.6503575 59.3241002,26.8131217 59.2780174,29.0805485 L59.2780174,29.0805485 Z" id="Shape"></path>
                    <path d="M59.2780174,32.7367057 C58.9077934,39.8951508 56.2857639,45.1321802 52.9553101,49.4569276 C51.1924502,51.9383657 48.7610002,53.9316392 46.2522249,55.7796349 C45.4219546,56.3912075 44.4799923,56.9106146 43.5481838,57.3792526 C41.6353598,58.3407415 39.6670803,59.2834849 37.4160559,59.8927142 C35.1564398,60.5050678 32.6882798,60.9971377 29.8748898,60.9971377 C21.4737731,60.9963567 15.3143079,58.1368839 10.563881,54.3315436 C9.36104354,53.3669304 8.21209944,52.3648262 7.17406633,51.2080715 C6.84601975,50.8417528 6.44923959,50.4355999 6.29771332,49.9513407 C18.6877203,49.6600041 31.4573241,50.0138257 44.0425969,49.7990333 C44.1964663,46.2694083 44.1706912,42.3812752 44.0425969,38.7157452 C36.7248149,38.4626807 29.3820389,38.7836977 22.065819,38.6399821 C15.7477981,38.5150119 9.44383625,38.6399821 2.94617073,38.6399821 C2.07919048,38.6399821 1.19268365,38.7204316 0.356164861,38.4876747 C0.164804354,37.8386111 -0.0507691139,37.0192757 0.0124970127,36.2405556 C0.880258329,36.0624732 1.79644557,36.1640114 2.67904709,36.1640114 C16.8045767,36.1640114 29.679624,36.1858812 44.0043248,36.0874672 C44.3089394,35.2111142 43.9527746,33.6747627 44.1949042,32.7359247 C45.8070188,32.5383156 47.5503521,32.6859366 49.3366438,32.6593805 C51.1432432,32.6336054 53.1185523,32.6476645 54.8595424,32.5828363 C55.6085821,32.555499 56.3912075,32.6476645 57.1449336,32.6211084 C57.8799141,32.5968954 58.6172379,32.5469073 59.2780174,32.7367057 L59.2780174,32.7367057 Z" id="Shape"></path>
                </g>
            </g>
        </g>
    </g>
</svg>