<?xml version="1.0" encoding="UTF-8" standalone="no"?>
<svg width="62px" height="62px" viewBox="0 0 62 62" version="1.1" xmlns="http://www.w3.org/2000/svg" xmlns:xlink="http://www.w3.org/1999/xlink">
    <!-- Generator: Sketch 40.1 (33804) - http://www.bohemiancoding.com/sketch -->
    <title>State_Puppet_Theater_Sofia_logo</title>
    <desc>Created with Sketch.</desc>
    <defs></defs>
    <g id="Page-1-Home-all-icons" stroke="none" stroke-width="1" fill="none" fill-rule="evenodd">
        <g id="Desktop" transform="translate(-59.000000, -1923.000000)" fill="#000000">
            <g id="State_Puppet_Theater_Sofia_logo" transform="translate(59.000000, 1923.000000)">
                <g id="State_x5F_Puppet_x5F_Theater_x5F_Sofia">
                    <path d="M53.3638537,51.9363415 C51.8070488,53.6882195 50.1300244,55.1542927 48.2118049,56.4389024 C45.3204878,58.3752683 42.2015854,60.0114634 38.2910488,61.0185854 C34.5506341,61.9803415 29.775122,62.387122 25.4313415,61.4382195 C24.7357317,61.2862439 24.0726341,61.1879512 23.4087805,61.0185854 C19.026439,59.8965366 15.1831951,58.008561 11.9992683,55.5610732 C10.2315122,54.2023659 8.64446341,52.5548293 7.15268293,50.7530488 C4.17668293,47.158561 2.05280488,43.0937805 0.780292683,37.8555366 C-0.529268293,32.4675854 -0.151219512,25.7557073 1.61956098,21.0656341 C2.0785122,19.8490732 2.44219512,18.6831707 2.95482927,17.592122 C3.46595122,16.5063659 4.06553659,15.523439 4.67268293,14.5019512 C5.83480488,12.5459268 7.28046341,10.6345122 8.86978049,9.04443902 C12.1036098,5.81136585 15.9045122,3.29356098 20.7374878,1.6414878 C23.1426341,0.819609756 25.9734634,0.177682927 28.9033415,0.0393170732 C32.759439,-0.142902439 36.3214146,0.315292683 39.2452439,1.29821951 C42.1872195,2.28795122 44.8191951,3.37446341 47.182,4.92370732 C51.9658293,8.06 55.5467073,11.989439 58.1340732,17.1346829 C59.3869268,19.6275366 60.5369512,22.6058049 61.0337073,25.8350976 C61.5531463,29.2065366 61.6310244,32.9582927 61.0337073,36.4809512 C59.9456829,42.8941707 56.9507805,47.9577561 53.3638537,51.9363415 L53.3638537,51.9363415 Z M53.0969512,18.3557805 C52.2569268,16.7793171 51.227122,15.2996341 50.119439,14.0059512 C46.3979268,9.65839024 41.3676098,6.46463415 34.4750244,5.26697561 C31.6328537,4.774 28.5812439,4.95470732 25.9651463,5.41970732 C24.7916829,5.62763415 23.6083902,5.87941463 22.5309512,6.25897561 C18.3482195,7.73260976 14.8452195,9.889 12.113439,12.8604634 C10.7388537,14.3560244 9.3294878,15.9279512 8.45014634,17.7062927 C6.5394878,21.5691951 4.93882927,25.5583659 4.93958537,31.2139756 C4.94034146,36.7070244 6.6944878,40.7400488 8.6792439,44.531878 C9.10341463,45.3424146 9.71509756,46.0833902 10.2821707,46.8205854 C12.0181707,49.0798049 13.9076585,50.8664634 16.3112927,52.4686341 C18.5871463,54.0201463 21.2720488,55.3871707 24.3244146,56.1326829 C25.3602683,56.3852195 26.4883659,56.6611951 27.644439,56.5893659 C27.7071951,56.2816341 27.4062683,56.0888293 27.2626098,55.9028293 C27.0985366,55.6903659 26.9246341,55.4612683 26.8051707,55.2162927 C25.8025854,53.1634878 27.055439,50.8906585 28.7128049,50.2940976 C30.2355854,49.7451707 31.9383171,50.3213171 32.7957317,51.514439 C33.6871707,52.7551951 33.5329268,54.5993171 32.7957317,55.7122927 C32.5568049,56.0729512 32.1772439,56.3277561 32.0706341,56.7420976 C32.8781463,56.9054146 33.7068293,56.776122 34.4750244,56.6657317 C39.9915122,55.877122 44.0691463,53.4644146 47.5252683,50.6744146 C50.4400244,48.143 52.7045366,44.9900732 54.3558537,41.2110976 C54.9100732,39.9416098 55.4393415,38.5647561 55.5769512,37.0510488 C54.9773659,37.1259024 54.8480732,37.6710488 54.3944146,37.8910732 C53.0689756,39.075878 51.483439,40.0512439 49.5863902,40.7521463 C47.724878,41.439439 45.4051707,41.9036829 42.9463415,41.6299756 C38.9798537,41.1884146 36.0409024,39.4962683 33.7892439,37.393561 C33.464122,37.091878 33.1397561,36.6926585 32.6823171,36.5550488 C32.4607805,37.401878 32.5681463,38.3349024 32.5681463,39.2641463 C32.5681463,40.2168293 32.6067073,41.1959756 32.6067073,42.1645366 C32.6067073,43.0983171 32.5636098,44.0714146 32.6067073,44.9878049 C32.6513171,45.9488049 32.7382683,46.8939268 32.5295854,47.7732683 C31.8717805,48.0205122 30.8858293,47.926 29.9732195,47.926 C29.0515366,47.9267561 28.0693659,48.0507561 27.4539024,47.7354634 C27.2164878,44.7881951 27.3019268,41.6768537 27.3019268,38.5390488 C27.3019268,37.0056829 27.2285854,35.4541707 27.3019268,33.9223171 C27.3760244,32.3655122 27.1295366,30.7232683 27.3019268,29.1899024 C27.3949268,28.3642439 27.884878,27.28 28.256122,26.5579268 C29.279878,24.5625854 30.8389512,22.7721463 32.6067073,21.3680732 C34.4296585,19.9193902 36.4567561,18.8041463 38.75,17.9716829 C41.1793415,17.0900732 44.2627073,16.74 47.0685854,17.2087805 C49.0593902,17.5407073 50.8210976,18.3603171 52.2576829,19.1927805 C52.7453659,19.4748049 53.1891951,19.8951951 53.785,19.995 C53.7479512,19.3818049 53.3683902,18.8661463 53.0969512,18.3557805 L53.0969512,18.3557805 Z M34.665561,32.0933171 C35.4216585,32.9129268 36.2889024,33.5533415 37.2604878,34.154439 C39.2422195,35.3808293 41.2489024,36.215561 44.4729024,36.215561 C47.476878,36.2148049 49.6257073,35.3256341 51.6467561,34.1166341 C53.0349512,33.2856829 54.319561,32.1417073 55.3100488,30.7966098 C55.5875366,30.4200732 56.1455366,29.6874146 56.1493171,29.3078537 C56.1523415,28.9902927 55.7735366,28.512439 55.5391463,28.163122 C53.9021951,25.7262195 51.2036829,23.808 48.2118049,22.9740244 C46.965,22.6254634 45.4580976,22.3925854 43.8619756,22.4772683 C39.129561,22.7290488 35.6999024,25.125122 33.5208293,27.9725854 C33.1896585,28.4043171 32.8433659,28.876122 32.7186098,29.4235366 C33.1042195,30.519878 33.9359268,31.302439 34.665561,32.0933171 L34.665561,32.0933171 Z" id="Shape"></path>
                    <path d="M44.2052439,22.8583415 C46.3752439,22.8107073 47.972122,23.7059268 49.1281951,24.9572683 C49.8721951,25.7632683 50.6003171,27.0856829 50.7689268,28.4300244 C51.3624634,33.1707561 46.9755854,37.0949024 42.2976098,35.4511463 C40.5154878,34.8250976 39.3125366,33.5828293 38.5587073,31.9027805 C37.8933415,30.4208293 37.8751951,28.1593415 38.5587073,26.636561 C39.2717073,25.0464878 40.2984878,23.986439 41.9543415,23.3165366 C42.6665854,23.0277073 43.369,22.8772439 44.2052439,22.8583415 L44.2052439,22.8583415 Z" id="Shape"></path>
                </g>
            </g>
        </g>
    </g>
</svg>