<?xml version="1.0" encoding="UTF-8" standalone="no"?>
<svg width="71px" height="59px" viewBox="0 0 71 59" version="1.1" xmlns="http://www.w3.org/2000/svg" xmlns:xlink="http://www.w3.org/1999/xlink">
    <!-- Generator: Sketch 40.1 (33804) - http://www.bohemiancoding.com/sketch -->
    <title>Animal_Feed_50_logo</title>
    <desc>Created with Sketch.</desc>
    <defs></defs>
    <g id="Page-1-Home-all-icons" stroke="none" stroke-width="1" fill="none" fill-rule="evenodd">
        <g id="Desktop" transform="translate(-530.000000, -2377.000000)" fill="#000000">
            <g id="Animal_Feed_50_logo" transform="translate(530.000000, 2377.000000)">
                <g id="Animal_x5F_Feed_x5F_50">
                    <path d="M57.936,8.82756338 C58.1723882,9.32033803 58.0470941,9.89953521 58.0671412,10.4363521 C58.1690471,13.1669718 58.0562824,15.7962113 57.0622824,17.6085915 C55.9429882,19.647 54.1387529,21.0089859 52.0805882,21.9986901 C51.7155647,22.0560282 51.3689176,22.1316479 51.0757294,22.2596197 C50.4659647,22.9086197 50.2663294,23.8908451 49.8962941,24.7376197 C49.7133647,25.1564366 49.4652824,25.5378592 49.2848588,25.9541831 C49.1094471,26.3588732 49.1303294,26.9139718 48.7168588,27.1715775 C48.2599529,26.8009577 48.0920588,26.1768873 47.8431412,25.6500423 C47.5942235,25.1248592 47.2809882,24.603 47.0571294,24.0852958 C46.8416235,23.5908592 46.7864941,22.9443521 46.3571529,22.6942254 C46.0890235,22.537169 45.7331882,22.5130704 45.44,22.4332958 C42.6442706,21.6746056 40.3731059,19.8331408 39.0600235,17.4781268 C37.5815529,14.8239577 37.7494471,10.5152958 37.7494471,6.35039437 C37.7494471,5.79529577 37.8187765,5.15211268 37.7494471,4.61197183 C37.6517176,3.83915493 36.9058,3.22921127 36.4397059,2.65583099 C36.2292118,2.39739437 35.6361529,1.89630986 35.6528588,1.56890141 C35.6729059,1.16421127 37.2014941,0.225197183 37.5314353,0.0473661972 C38.0217529,-0.215225352 38.553,0.673098592 38.9297176,1.13429577 C39.9955529,2.43561972 41.1123412,3.7818169 42.1631412,5.00253521 C43.3049882,6.32878873 44.2697529,7.46890141 45.4408353,8.82756338 C45.8534706,9.30704225 46.2251765,9.87543662 46.6202706,10.0017465 C47.1598706,10.1737606 48.4387059,10.0034085 49.1979882,10.0017465 C50.1936588,9.99925352 51.4056706,10.0083944 52.6059882,10.0017465 C53.8906706,9.99426761 55.3073294,10.2144789 56.1885647,9.87128169 C56.8701647,9.6053662 57.1316118,9.04195775 57.936,8.82756338 L57.936,8.82756338 Z" id="Shape"></path>
                    <path d="M3.32112941,5.52439437 C3.7062,5.47702817 4.30343529,6.20414085 4.63087059,6.52407042 C6.43092941,8.27911268 8.96855294,9.87626761 12.2771529,10.0449577 C13.6587294,10.1147606 15.1071294,9.99177465 16.6465765,10.0449577 C19.5074588,10.1430141 22.4727529,10.029169 25.3403176,10.0449577 C27.5438235,10.0565915 29.6546118,9.95770423 31.8948706,9.95770423 C32.5773059,9.95770423 33.2998353,9.92446479 33.9480235,10.1313803 C34.0524353,10.5526901 33.6907529,10.8958873 33.512,11.2183099 C31.4897529,14.8414085 28.2496471,17.6941831 24.2928588,19.4334366 C23.5636471,19.7541972 22.8419529,20.1314648 22.0642941,20.3899014 C21.2766118,20.650831 20.4354706,20.7347606 19.6611529,21.1286479 C19.8014824,21.8657324 20.3051647,22.5072535 20.7102824,23.128 C21.1195765,23.7562254 21.5196824,24.3960845 21.9774235,24.9536761 C25.0371059,25.7065493 28.1510824,26.4045775 30.9351176,27.4316761 C31.1639882,28.4222113 31.0654235,29.5872535 31.0654235,30.7348451 C31.0654235,31.8890845 31.0696,33.0258732 31.0654235,34.0820563 C31.0637529,34.7185915 31.1522941,35.4033239 31.3711412,35.9077324 C31.8196941,35.7224225 32.0577529,35.1947465 32.3325647,34.7775915 C32.8796824,33.9474366 33.3282353,33.1978873 33.9054235,32.2563803 C34.1518353,31.8550141 34.4884588,31.3140423 34.8660118,31.1694507 C35.4640824,30.9409296 36.7754941,31.1619718 37.7494471,31.1262394 C38.7392706,31.0896761 39.7750353,31.1378732 40.6337176,31.1694507 C42.6877059,31.2459014 44.4919412,31.1262394 46.5325647,31.1262394 C49.3600353,31.1262394 52.5266353,31.1312254 55.2705765,31.0830282 C56.0849882,31.0680704 57.5442471,30.9966056 58.1105765,31.213493 C58.6167647,31.4079437 59.3618471,32.8106479 59.6834353,33.2560563 C59.9490588,33.6250141 60.1854471,34.0064366 60.4268471,34.3429859 C60.6874588,34.7061268 60.9280235,35.1274366 61.3005647,35.2562394 C61.5753765,34.8415775 61.5027059,34.2947887 61.5194118,33.8219577 C61.5745412,32.2289577 61.5436353,30.5919155 61.5194118,28.9972535 C61.4258588,22.893662 61.3632118,16.5100282 61.4325412,10.1322113 C63.0104118,9.94523944 64.8238353,9.97930986 66.5445412,10.0457887 C68.2076118,10.4654366 69.5106706,11.565662 69.9517059,13.1752817 C70.2407176,14.2264789 70.0694824,15.6000986 70.1271176,16.8698451 C70.2908353,20.4513944 70.1212706,24.6761268 70.2139882,28.258507 C70.2824824,30.9018732 70.1438235,33.4912254 70.2139882,35.9949859 C70.2666118,37.877169 70.3977529,39.6720986 70.3008588,41.6897324 C70.2732941,42.2764085 70.3309294,42.9104507 70.1262824,43.4721972 C69.7529059,43.7264789 68.7062824,43.3533662 68.3345765,43.776338 C68.1040353,44.0389296 68.2401882,44.8848732 68.2477059,45.5147606 C68.2802824,48.6658592 68.2552235,51.9158451 68.3345765,54.7736056 C68.3688235,56.0200845 68.5049765,57.3529859 68.2034353,58.294493 C65.8286941,58.4324366 63.2459647,58.3377042 60.6448588,58.3377042 C59.7970353,58.3377042 58.9500471,58.4764789 58.1974471,58.2512817 C58.4062706,57.2000845 59.1288,56.168 59.5514588,55.0785775 C59.6867765,54.7303944 59.9139765,54.3522958 59.9883176,53.9916479 C60.1595529,53.1656479 59.9883176,52.036338 59.9883176,50.9926197 C59.9883176,48.8711127 59.9440471,47.1825493 59.9440471,44.9505211 C59.9448824,43.9807606 60.0944,42.7201549 59.8571765,41.9947042 C59.6224588,41.2792254 58.7295294,40.8171972 58.3277529,40.299493 C57.7138118,39.8997887 57.3922235,39.0264225 56.6680235,38.7779577 C56.1267529,38.5918169 55.2789294,38.7264366 54.5271647,38.6907042 C49.2623059,38.4414085 43.4712118,38.8569014 38.4920235,38.6907042 C38.1913176,38.8967887 38.3024118,40.2704085 38.3174471,40.9941972 C38.4001412,45.1233662 38.3157765,49.2924225 38.4043176,53.4257465 C38.4402353,55.105169 38.5062235,56.7654789 38.3174471,58.2504507 C37.0310941,58.3933803 35.1466706,58.3958732 33.8603176,58.2504507 C33.8227294,57.8291408 34.0499294,57.4776338 34.2103059,57.1203099 C34.5202,56.4280986 34.8576588,55.8322817 35.2151647,55.0777465 C35.3880706,54.7121127 35.6603765,54.3331831 35.6511882,53.9908169 C35.6386588,53.5063521 35.0539529,52.7767465 34.8209059,52.3820282 C34.1626941,51.2660141 33.7392,50.506493 32.9866,49.3389577 C32.7978235,49.0472817 32.2106118,48.0010704 31.8940353,47.9910986 C31.5699412,47.9811268 31.1806941,48.7755493 30.9760471,49.1652817 C30.2301294,50.5862676 29.3630941,51.7097606 28.6171765,53.0335211 C28.1594353,53.8437324 27.7050353,54.8508873 27.1746235,55.7284085 C26.9632941,56.0774225 26.6458824,56.5593944 26.3886118,57.0322254 C26.1513882,57.468493 25.9058118,58.1440845 25.6026,58.292831 C25.2008235,58.4881127 24.5392706,58.3476761 24.0289059,58.3360423 C23.4801176,58.3227465 22.9563882,58.4382535 22.5437529,58.2496197 C22.8202353,57.3887183 23.3339412,56.6283662 23.8543294,55.815662 C24.3212588,55.0877183 25.0663412,54.3032676 25.2091765,53.2944507 C25.3678824,52.1692958 25.2091765,50.8920704 25.2091765,49.6430986 C25.2083412,48.4647606 25.2091765,47.2232676 25.2091765,45.9917465 C25.2083412,44.8001127 25.2668118,43.6475352 25.2091765,42.4268169 C25.1498706,41.1861549 25.3277882,39.7909296 25.0780353,38.8186761 C24.9477294,38.3092817 24.3805647,37.5530845 23.9854706,36.993 C21.9632235,34.1236056 20.2851176,31.3165352 18.2612,28.3432676 C17.9320941,27.8596338 17.4935647,27.2513521 17.0817647,26.6480563 C16.7175765,26.1137324 16.2640118,25.1805352 15.8580588,24.9960563 C15.2391059,24.7151831 13.2753294,24.8813803 12.5369294,24.9096338 C10.0711412,25.0018732 8.20342353,24.9096338 5.93977647,24.9096338 C4.81881176,24.9096338 3.49737647,24.9403803 2.53177647,24.8664225 C1.71903529,24.2249014 1.17191765,23.2634507 0.522894118,22.302 C0.327435294,22.0111549 -0.00501176471,21.6006479 -2.17825771e-14,21.3031549 C0.00501176471,20.9823944 0.534588235,20.4272958 0.829447059,20.0857606 C1.80423529,18.9597746 2.73224706,17.9310141 3.62601176,16.8258028 C4.51810588,15.7230845 5.41688235,14.7142676 6.37914118,13.5226338 C6.65896471,13.1761127 7.18937647,12.7307042 7.20942353,12.3484507 C7.23531765,11.8315775 6.49274118,11.0122254 6.20456471,10.6100282 C5.40268235,9.49069014 4.75031765,8.48935211 4.01943529,7.39328169 C3.68197647,6.88804225 3.13068235,6.38861972 3.14571765,5.65485915 C3.23425882,5.64239437 3.23091765,5.53685915 3.32112941,5.52439437 L3.32112941,5.52439437 Z" id="Shape"></path>
                </g>
            </g>
        </g>
    </g>
</svg>