<?xml version="1.0" encoding="UTF-8" standalone="no"?>
<svg width="45px" height="63px" viewBox="0 0 45 63" version="1.1" xmlns="http://www.w3.org/2000/svg" xmlns:xlink="http://www.w3.org/1999/xlink">
    <!-- Generator: Sketch 40.1 (33804) - http://www.bohemiancoding.com/sketch -->
    <title>Ermolao_logo</title>
    <desc>Created with Sketch.</desc>
    <defs></defs>
    <g id="Page-1-Home-all-icons" stroke="none" stroke-width="1" fill="none" fill-rule="evenodd">
        <g id="Desktop" transform="translate(-670.000000, -2044.000000)" fill="#000000">
            <g id="Ermolao_logo" transform="translate(670.000000, 2044.000000)">
                <g id="Ermolao">
                    <path d="M18.1541803,0.133411765 C18.3688525,0.897564706 18.3061475,1.74324706 18.3061475,2.58003529 C18.3061475,4.3344 18.2729508,6.15250588 18.2677869,7.81644706 C18.2655738,8.69992941 18.3909836,9.58489412 18.3061475,10.4535529 C18.1519672,12.0389294 17.3183607,13.0276588 16.252377,13.7406706 C15.1945082,14.4484941 13.937459,14.9910353 12.8663115,15.6899647 C11.842377,16.3585059 10.8317213,17.1849176 10.0136066,18.1751294 C8.35893443,20.1763059 6.98090164,22.1382 6.05803279,24.9013059 C5.61909836,26.2124471 5.14180328,27.7111059 5.33434426,29.3728235 C5.71204918,29.0934 5.80204918,28.6234941 6.05803279,28.2647647 C7.35565574,26.4392471 9.9295082,24.9672706 12.8294262,26.0479059 C14.5327869,26.6823529 15.6297541,27.7563176 16.3667213,29.3728235 C16.4995082,29.6633647 16.5858197,30.0213529 16.8609836,30.2511176 C17.1907377,30.0406235 17.1634426,29.6218588 17.2792623,29.3342824 C18.0922131,27.3264353 19.9556557,25.6083882 22.7190984,25.5127765 C26.0262295,25.3978941 27.6395902,27.7118471 28.6155738,30.1755176 C28.9364754,30.0295059 28.9586066,29.6151882 29.0714754,29.3342824 C29.4159836,28.4811882 29.9567213,27.6829412 30.6309836,27.1174235 C31.750082,25.8048 34.1793443,25.0747412 36.3371311,25.7796 C37.6627869,26.2124471 38.8040164,27.1952471 39.4937705,28.3018235 C39.7290984,28.6798235 39.8205738,29.1682588 40.2167213,29.4491647 C40.4498361,28.8310235 40.2971311,28.0572353 40.3303279,27.2708471 C40.3613115,26.5444941 40.3369672,25.8255529 40.3686885,25.1295882 C40.4358197,23.6316706 40.1990164,22.3449882 39.7217213,21.2695412 C38.7995902,19.1890588 37.3138525,17.5844118 35.0808197,16.8743647 C30.1883607,15.3186353 26.4046721,18.5538706 25.3807377,22.2249176 C25.2169672,22.8126706 25.282623,23.4589765 24.9631967,24.0600706 C23.7090984,24.1831059 22.1436885,24.2023765 20.9309016,24.0600706 C20.6542623,23.2833176 20.9397541,22.4947059 21.0828689,21.8054118 C22.107541,16.8921529 25.3541803,13.5842824 30.0216393,12.4028471 C33.1281148,11.6164588 36.5621311,12.3717176 38.6188525,13.6643294 C39.6295082,14.2995176 40.8054098,15.0666353 41.4715574,16.0338706 C42.1886066,17.073 43.0015574,18.0268941 43.4877049,19.2439059 C43.9657377,20.4416471 44.4467213,21.8113412 44.5522131,23.4478588 C44.6547541,25.0198941 44.6289344,26.7053294 44.6289344,28.5308471 C44.627459,37.2819176 44.5898361,45.4356 44.5905738,54.3289765 C44.5905738,55.1961529 44.6163934,56.1033529 44.5905738,56.9668235 C44.5654918,57.8162118 44.7093443,58.8064235 44.5138525,59.5275882 C44.0793443,61.1359412 42.7632787,62.6457176 40.9381967,62.8525059 C39.427377,63.0222353 37.7358197,62.8517647 36.1069672,62.8525059 C27.9236066,62.8532471 19.9379508,62.7769059 11.7228689,62.7754235 C10.1058197,62.7746824 8.51754098,62.8095176 6.81639344,62.7754235 C5.25393443,62.7442941 3.52180328,62.8250824 2.63139344,62.2395529 C1.90327869,61.7607529 1.04090164,60.7483059 0.843196721,59.7551294 C0.62557377,58.6589294 0.804836066,57.1899176 0.804836066,55.8950824 C0.80557377,49.3453059 0.804836066,42.9630353 0.804836066,36.5948471 C0.80557377,34.0133294 0.703032787,31.4540471 0.843196721,29.0266941 C1.11614754,24.2987294 2.84754098,20.5683882 4.91385246,17.5614353 C7.05098361,14.4514588 9.97081967,12.1834588 13.1311475,10.2608471 C13.9345082,9.64567059 13.9094262,8.5302 13.9677049,7.05081176 C14.0289344,5.52028235 13.9684426,3.89265882 13.9677049,2.27318824 C13.9677049,1.48012941 13.8304918,0.664835294 14.1580328,0.0570705882 C15.3855738,0.0392823529 17.0527869,-0.0993176471 18.1541803,0.133411765 L18.1541803,0.133411765 Z M17.7351639,34.8375176 C17.4459836,34.3409294 17.2895902,33.7635529 16.9745902,33.2706706 C16.9657377,33.2410235 16.9428689,33.2254588 16.8986066,33.2321294 C16.8897541,33.2869765 16.8359016,33.2966118 16.822623,33.3462706 C16.5961475,33.9162353 16.4139344,34.4372824 16.1372951,34.9131176 C15.8569672,35.3963647 15.4519672,35.7462 15.2247541,36.2509412 C15.7979508,36.3939882 16.5231148,36.0871412 17.2409016,36.0982588 C17.742541,36.1064118 18.2493443,36.3695294 18.610082,36.1753412 C18.487623,35.6720824 18.0213934,35.3274353 17.7351639,34.8375176 L17.7351639,34.8375176 Z M29.4513934,34.7989765 C29.1467213,34.3172118 29.0227869,33.7702235 28.6915574,33.2706706 L28.5772131,33.2706706 C28.567623,33.3255176 28.5145082,33.3351529 28.5004918,33.3848118 C28.3086885,33.8932588 28.0895902,34.3735412 27.8542623,34.8375176 C27.6801639,35.3007529 27.1231967,35.5786941 27.0936885,36.0604588 C27.507541,36.1894235 27.9966393,35.9818941 28.5004918,35.9841176 C29.1762295,35.9870824 29.8047541,36.2057294 30.3646721,36.1753412 C30.1972131,35.6261294 29.7435246,35.2592471 29.4513934,34.7989765 L29.4513934,34.7989765 Z M40.0654918,33.8050588 C39.0828689,35.8951765 37.285082,37.9304471 34.1306557,37.7036471 C33.6651639,37.6702941 33.1384426,37.4820353 32.7238525,37.5887647 C32.8706557,38.0527412 33.1841803,38.3625529 33.4084426,38.7361059 C33.6327049,39.1096588 33.8872131,39.5069294 34.0546721,39.9583059 C34.5990984,41.4250941 34.4788525,43.1120118 33.9410656,44.4298235 C32.9355738,46.8957176 29.9242623,48.7938706 26.7513934,47.8318235 C26.7639344,48.2194588 27.1231967,48.4440353 27.3216393,48.7108588 C27.9612295,49.5654353 28.4872131,50.652 28.5772131,52.0357765 C28.747623,54.6447176 27.4101639,56.5880824 25.8764754,57.6153529 C25.5356557,57.8443765 25.097459,57.8932941 24.8119672,58.3039059 C25.9753279,58.4617765 27.1866393,58.4632588 28.387623,58.4565882 C31.390082,58.4402824 34.5164754,58.4565882 37.6694262,58.4565882 C38.2935246,58.4565882 39.0607377,58.5403412 39.4952459,58.3795059 C40.660082,57.9511059 40.3332787,55.8476471 40.332541,54.1755529 C40.332541,47.1128824 40.4085246,40.3904118 40.2565574,33.6894353 L40.1798361,33.6894353 C40.1245082,33.7116706 40.0861475,33.7502118 40.0654918,33.8050588 L40.0654918,33.8050588 Z M10.6222131,37.9712118 C8.08155738,37.8022235 6.41655738,35.9996824 5.44868852,34.1875059 L5.37270492,34.1875059 C5.3247541,34.2030706 5.2945082,34.2364235 5.29598361,34.3023882 C5.22368852,35.2029176 5.2207377,36.2331529 5.2207377,37.2070588 L5.2207377,54.7492235 C5.2207377,55.7023765 5.03704918,57.0061059 5.25909836,57.6924353 C5.51877049,58.4973529 6.52131148,58.3802471 7.65516393,58.3802471 C11.0478689,58.3817294 14.0333607,58.4187882 17.1656557,58.4187882 C18.4809836,58.4187882 19.7645902,58.5069882 20.932377,58.3046471 C20.5465574,57.8503059 19.8420492,57.7176353 19.3728689,57.3492706 C18.1608197,56.2997647 17.0247541,54.7284706 17.0144262,52.6094471 C17.0070492,51.2375294 17.3913934,49.9945765 18.0036885,49.0169647 C18.2648361,48.6004235 18.7163115,48.4114235 18.7642623,47.8696235 C16.2265574,48.3276706 14.2509836,47.6094706 12.9437705,46.1500941 C12.1005738,45.2088 11.4528689,44.0473765 11.3459016,42.5576118 C11.2654918,41.4250941 11.4831148,40.2918353 11.8785246,39.4231765 C12.1544262,38.8176353 12.637623,38.4203647 12.8677869,37.7799882 C12.130082,37.7822118 11.4344262,38.0253176 10.6222131,37.9712118 L10.6222131,37.9712118 Z M23.2133607,37.8177882 C22.5789344,37.8659647 21.832377,37.6784471 21.2731967,37.6651059 C21.2171311,37.6984588 21.1522131,37.7221765 21.1588525,37.8177882 C21.8390164,38.6508706 22.3155738,39.6877765 22.795082,40.7224588 C23.227377,40.32 23.2517213,39.6870353 23.5172951,39.1941529 C23.7865574,38.6953412 24.2203279,38.3017765 24.3545902,37.7421882 C23.9997541,37.5880235 23.625,37.7866588 23.2133607,37.8177882 L23.2133607,37.8177882 Z M22.795082,43.4359059 C22.7404918,43.4574 22.7021311,43.4959412 22.6807377,43.5507882 C22.4845082,44.1911647 22.2395902,44.6833059 21.9585246,45.1939765 C21.6730328,45.7105765 21.2510656,46.0663412 21.0459836,46.6081412 C21.3078689,46.7044941 21.5542623,46.5355059 21.844918,46.494 C22.7788525,46.3576235 23.8315574,46.4361882 24.6592623,46.6466824 C24.5021311,46.0878353 23.9798361,45.7031647 23.67,45.1554353 C23.5143443,44.8797176 23.3660656,44.6077059 23.252459,44.3149412 C23.137377,44.0199529 23.1381148,43.6308353 22.8341803,43.4351647 C22.8201639,43.4359059 22.8068852,43.4359059 22.795082,43.4359059 L22.795082,43.4359059 Z" id="Shape"></path>
                </g>
            </g>
        </g>
    </g>
</svg>