<?xml version="1.0" encoding="UTF-8" standalone="no"?>
<svg width="43px" height="71px" viewBox="0 0 43 71" version="1.1" xmlns="http://www.w3.org/2000/svg" xmlns:xlink="http://www.w3.org/1999/xlink">
    <!-- Generator: Sketch 40.1 (33804) - http://www.bohemiancoding.com/sketch -->
    <title>Central_Puppet_Theater_Sofia_logo</title>
    <desc>Created with Sketch.</desc>
    <defs></defs>
    <g id="Page-1-Home-all-icons" stroke="none" stroke-width="1" fill="none" fill-rule="evenodd">
        <g id="Desktop" transform="translate(-182.000000, -1918.000000)" fill="#000000">
            <g id="Central_Puppet_Theater_Sofia_logo" transform="translate(182.000000, 1918.000000)">
                <g id="Central_x5F_Puppet_x5F_Theater_x5F_Sofia">
                    <path d="M26.3150851,0.133701299 C26.4568936,0.644532468 26.1293617,1.08528571 25.9646809,1.50206494 C25.464234,2.76254545 25.0735745,4.12076623 24.6938936,5.52048052 C24.2025957,7.32683117 23.6829362,9.16176623 23.2913617,11.1718961 C22.7104043,14.1520519 22.4588085,17.2991039 22.4597234,20.9735844 C22.4597234,21.844026 22.1770213,23.9048701 23.1614468,23.7988312 C23.7158723,23.7388961 24.0168723,22.0607143 24.2117447,21.4585974 C25.8832553,16.3235455 28.0076383,12.0506364 30.7834255,7.90312987 C31.2326383,7.23185714 31.6470851,6.3355974 32.2737872,6.04883117 C32.7925319,5.81093506 33.5217021,5.76483117 34.2005532,5.69567532 C34.855617,5.62836364 35.6341915,5.57488312 36.2160638,5.87179221 C36.1867872,6.84274026 35.5454468,7.6431039 35.1648511,8.52092208 C33.2710213,12.8814286 31.8501915,17.7370909 30.564766,22.8702987 C29.5080638,27.0934156 29.0341489,33.5968312 33.0615106,34.7033247 C35.2151702,34.8656104 36.2480851,33.5866883 37.091617,32.4073506 C37.5289362,31.796013 38.0046809,31.1957403 38.3624043,30.5087922 C38.7201277,29.8227662 38.9708085,29.0694286 39.4575319,28.4774545 C40.1903617,28.778974 40.6148723,29.5064935 41.0357234,30.1113766 C41.4730426,30.7411558 41.9469574,31.3810779 42.2616809,32.0984545 C42.0329574,34.5733117 41.2992128,36.7872208 40.3349149,38.7217403 C39.8802128,39.6336753 39.482234,40.5834156 38.9332979,41.5912468 C38.5060426,42.3731688 37.8473191,43.7267792 37.0925319,44.02 C36.3935532,44.292013 35.3835106,44.2606623 34.5518723,44.2855584 C32.757766,44.3371948 31.1082128,43.9969481 29.6462128,43.5783247 C29.0112766,43.3966753 28.1009574,42.824987 27.6307021,43.4898052 C27.8877872,44.1075974 28.6901489,44.2403766 29.2948936,44.4616753 C30.9014468,45.0471948 32.7824681,45.2823247 34.9022766,45.4326234 C35.2545106,45.4575195 35.6479149,45.3837532 35.9534894,45.5654026 C35.8802979,46.2348312 35.3084894,46.7041688 34.9022766,47.1550649 C33.6250851,48.5722987 32.2317021,49.7885195 30.521766,50.8203247 C28.8109149,51.8521299 26.9335532,52.6294416 24.7396383,53.1162987 C24.028766,53.273974 23.2739787,53.3034805 22.5484681,53.6022338 C22.8650213,53.9710649 23.3435106,54.0448312 23.7314255,54.220026 C28.0936383,56.1868182 30.6818723,60.3942597 32.4494468,65.0821039 C33.0953617,66.7971688 33.8574681,68.6339481 33.9828085,70.6007403 C33.4265532,70.9538961 32.7165957,70.822039 32.0981277,70.822039 C25.585,70.822039 18.5485532,70.7787013 12.0775106,70.7777792 C10.5798298,70.7777792 9.10044681,70.7335195 7.65217021,70.7335195 C7.24778723,70.7335195 6.73270213,70.8478571 6.38138298,70.5564805 C6.31185106,70.0585584 6.58357447,69.5975195 6.68878723,69.1438571 C7.88821277,63.9645455 9.78387234,59.2554935 13.2165532,56.2513636 C13.8734468,55.675987 14.4260426,55.143026 15.187234,54.705961 C15.9337872,54.2771948 16.7059574,53.9793636 17.5531489,53.557974 C17.1542553,53.2389351 16.6300213,53.2509221 16.1954468,53.1605584 C12.9201277,52.4791429 10.4224681,50.7401039 8.39780851,48.6571299 C6.14808511,46.3436364 4.26340426,43.5340649 3.05208511,39.9582468 C1.88742553,36.5198182 0.914893617,32.9025065 0.423595745,28.5244805 C0.312893617,27.5406234 0.114361702,26.483 0.0722765957,25.3451558 C-0.0109787234,23.1072727 -0.0375106383,20.7947013 0.0722765957,18.4572338 C0.124425532,17.3498182 0.135404255,16.1815455 0.467510638,15.3664286 C0.86,14.4000909 1.84625532,13.7103766 2.65776596,12.9819351 C2.96974468,12.7025455 3.22865957,12.2737792 3.53423404,12.3641429 C3.88097872,12.4655714 3.88006383,13.8422338 3.92855319,14.3954805 C4.21125532,17.6172208 4.429,20.4645974 5.19934043,23.2704805 C5.62202128,24.8103506 6.13710638,26.2211299 6.68970213,27.5977922 C6.86170213,28.0293247 6.99070213,28.5466104 7.43351064,28.7457792 C7.75006383,28.6821558 7.85893617,28.4092208 8.04648936,28.2155844 C7.9266383,26.2856753 7.74457447,24.2985974 7.65217021,22.2986104 C7.55976596,20.3023117 7.78665957,18.2488442 8.04648936,16.3816364 C8.56889362,12.6177143 9.2587234,8.99579221 10.3245745,5.91697403 C10.8350851,5.47622078 11.4453191,5.0658961 12.0775106,4.72472727 C12.6923191,4.39277922 13.3574468,3.9842987 14.0921064,3.9298961 C14.319,4.69614286 14.0664894,5.52232468 14.0042766,6.35864935 C13.6959574,10.5421169 13.2833404,15.1857013 13.785617,19.6052208 C13.8780213,20.424026 14.0271489,21.2741818 14.0921064,22.0782338 C14.1570638,22.8702987 13.9786596,23.7794675 14.5742553,24.3299481 C15.824,24.3188831 15.4415745,22.5826104 15.5376383,21.5047013 C15.8386383,18.1142208 16.5842766,15.0317143 17.3784043,12.0119091 C17.9099574,9.98887013 18.5275106,8.28394805 19.3060851,6.40383117 C19.6317872,5.61637662 20.0535532,4.67124675 20.4890426,3.79896104 C20.8650638,3.04654545 21.3243404,1.92806494 21.8467447,1.41446753 C22.6308085,0.644532468 24.4724894,0.276623377 25.6581915,0.0461038961 C25.8292766,0.011987013 26.1458298,-0.0719220779 26.3150851,0.133701299 L26.3150851,0.133701299 Z M25.4825319,40.3575065 C26.3196596,39.6853117 26.9518511,38.6295325 27.1906383,37.488 C27.6773617,35.1560649 26.4486596,33.3746104 24.957383,32.3215974 C21.6985319,30.7033506 18.2072979,32.6351039 17.6848936,35.8098182 C17.5906596,36.387039 17.5037447,37.2095325 17.9474681,37.7526364 C18.2896383,37.4612597 18.2859787,36.991 18.5174468,36.6046494 C19.3856809,35.1477662 21.7461064,34.5041558 23.3371064,35.5451818 C24.0177872,36.1472987 24.6755957,36.9365974 24.7826383,38.1057922 C24.9162128,39.5626753 24.1696596,40.2044416 23.8183404,41.1080779 C24.458766,41.0509091 25.043383,40.7106623 25.4825319,40.3575065 L25.4825319,40.3575065 Z" id="Shape"></path>
                </g>
            </g>
        </g>
    </g>
</svg>