<svg xmlns="http://www.w3.org/2000/svg" width="256" height="256" viewBox="0 0 256 256" version="1.1">
	<path d="M 79.270 29.744 C 69.383 30.148, 70.399 29.111, 57.450 52 C 52.627 60.525, 47.627 69.179, 46.340 71.230 C 43.322 76.040, 43.385 77.611, 47.058 89.363 C 51.723 104.286, 53.555 107.033, 71.090 125.399 C 76.657 131.230, 80.919 136, 80.563 136 C 80.206 136, 77.571 134.232, 74.707 132.072 C 71.843 129.912, 65.229 125.299, 60.010 121.822 C 54.790 118.345, 49.502 113.970, 48.259 112.101 C 45.343 107.716, 40.009 91.075, 39.970 86.238 C 39.947 83.464, 39.700 82.908, 39.013 84.083 C 37.836 86.095, 40.989 101.926, 43.858 108.412 C 47.452 116.537, 49.880 118.900, 64.519 128.529 C 72.378 133.699, 81.578 140.492, 84.962 143.625 C 91.058 149.269, 94.704 154.447, 93.226 155.360 C 92.805 155.621, 88.669 152.969, 84.036 149.469 C 79.403 145.968, 69.753 139.818, 62.591 135.802 C 55.430 131.786, 47.713 126.670, 45.443 124.434 C 40.974 120.032, 36.911 110.926, 34.875 100.750 C 34.242 97.588, 33.449 95.017, 33.112 95.037 C 32.143 95.097, 26.147 105.423, 19.255 118.900 L 12.913 131.300 15.304 133.900 C 18.059 136.896, 21.003 141.815, 34.516 166 C 39.894 175.625, 45.953 186.200, 47.980 189.500 C 54.339 199.852, 60.452 210.401, 61.597 213 C 62.203 214.375, 64.311 218.018, 66.282 221.097 L 69.865 226.693 89.683 227.346 C 100.582 227.705, 126.137 228.041, 146.471 228.093 L 183.441 228.188 185.649 225.622 C 186.863 224.211, 190.445 218.431, 193.609 212.778 C 196.774 207.125, 202.683 196.945, 206.742 190.154 C 210.801 183.364, 214.509 176.839, 214.982 175.654 C 215.455 174.470, 217.421 171.031, 219.351 168.013 C 221.281 164.996, 222.719 162.386, 222.547 162.214 C 222.375 162.042, 220.494 163.090, 218.367 164.544 C 206.057 172.956, 167.048 188.371, 152.579 190.540 C 145.273 191.636, 147.003 189.546, 158.270 183.663 C 163.592 180.885, 167.752 178.419, 167.516 178.182 C 167.279 177.946, 164.479 179.100, 161.293 180.746 C 153.240 184.907, 137.605 191.032, 131.013 192.610 C 125.263 193.985, 114.655 194.232, 109.500 193.110 C 105.807 192.307, 106.880 191.483, 115.590 188.436 C 122.995 185.845, 133.008 181.087, 131.162 181.037 C 130.426 181.016, 127.047 182.285, 123.653 183.856 C 120.259 185.427, 114.317 187.528, 110.448 188.524 L 103.414 190.336 97.457 187.598 C 91.749 184.975, 91.595 184.809, 93.781 183.628 C 96.415 182.206, 95.729 181, 92.288 181 C 88.797 181, 84.658 176.500, 85.406 173.518 C 85.861 171.706, 85.525 170.984, 84.004 170.501 C 81.154 169.597, 80.200 165.058, 82.506 163.372 C 84.173 162.153, 84.181 162.007, 82.617 161.406 C 79.204 160.097, 76.326 151, 79.325 151 C 80.054 151, 83.258 153.025, 86.446 155.500 C 89.633 157.975, 92.838 160, 93.567 160 C 94.297 160, 96.904 158.931, 99.360 157.626 C 102.602 155.902, 106.248 155.065, 112.663 154.572 C 123.279 153.756, 142.891 151.186, 144.073 150.455 C 144.538 150.168, 145.752 150.453, 146.771 151.089 C 148.226 151.998, 149.298 151.897, 151.762 150.623 C 155.108 148.893, 161 148.417, 161 149.878 C 161 150.360, 158.473 152.835, 155.385 155.378 C 152.297 157.920, 150.071 160, 150.438 160 C 150.805 160, 154.966 157.458, 159.684 154.350 L 168.263 148.700 183.382 149.344 C 191.697 149.698, 200.075 150.252, 202 150.576 C 205.288 151.130, 207.901 152.567, 206.933 153.290 C 206.695 153.469, 204.653 155.037, 202.396 156.776 C 200.139 158.514, 194.964 162.019, 190.896 164.563 C 186.828 167.107, 184.625 168.871, 186 168.482 C 187.375 168.093, 192.325 165.402, 197 162.502 C 212.513 152.876, 215.782 152.071, 221.538 156.461 L 224.764 158.922 228.311 153.176 C 230.262 150.015, 233.900 143.233, 236.396 138.104 C 240.861 128.930, 240.910 128.721, 239.433 125.140 C 238.607 123.138, 236.433 119.025, 234.602 116 C 232.771 112.975, 225.988 101.050, 219.529 89.500 C 213.070 77.950, 206.226 66.025, 204.321 63 C 198.083 53.099, 191 40.701, 191 39.685 C 191 38.638, 187.144 33.287, 184.444 30.587 C 183.033 29.176, 177.558 29.023, 135.179 29.204 C 108.955 29.315, 83.797 29.559, 79.270 29.744 M 97.554 42.943 C 93.481 47.195, 94.223 53.268, 100.020 63.124 C 108.811 78.070, 112.200 85.150, 112.200 88.568 C 112.200 92.260, 109.187 98.129, 100.258 111.827 C 94.562 120.567, 88 133.707, 88 136.375 C 88 138.626, 86.322 139.238, 83.771 137.917 C 81.820 136.907, 81.912 137.180, 84.420 139.852 C 86.368 141.928, 87.714 142.653, 88.464 142.029 C 89.237 141.388, 90.611 142.803, 92.851 146.548 C 95.946 151.722, 96.319 152, 100.178 152 C 102.414 152, 108.801 151.361, 114.372 150.580 C 137.372 147.354, 148.753 146.569, 173 146.535 C 198.624 146.500, 207.891 147.394, 215.718 150.658 C 220.377 152.601, 221.659 152.306, 218.693 149.973 C 212.190 144.858, 196.986 141.048, 165 136.518 C 139.306 132.879, 134.985 131.907, 133.341 129.398 C 132.194 127.647, 131.980 125.782, 132.496 122.031 C 133.403 115.433, 131.609 114.590, 124.802 118.416 C 117.086 122.753, 114.274 123.274, 111.819 120.819 C 110.032 119.032, 109.816 117.885, 110.249 112.484 C 110.866 104.800, 113.841 98.093, 121.889 86.243 L 127.998 77.249 125.871 72.374 C 123.021 65.843, 116.328 56.612, 110.011 50.500 C 107.169 47.750, 104.192 44.263, 103.396 42.750 C 101.579 39.297, 101.030 39.315, 97.554 42.943 M 128.764 81.654 C 125.488 83.380, 122.087 88.957, 117.462 100.184 C 112.402 112.469, 113.086 117.579, 119.690 116.822 L 122.500 116.500 122.236 109.119 C 121.820 97.498, 121.443 97.613, 140.500 103.522 C 156.700 108.545, 157.544 108.610, 161.053 105.101 C 164.934 101.220, 165.017 97.453, 161.239 96.698 C 159.720 96.394, 155.851 93.847, 152.640 91.037 C 146.529 85.690, 136.318 79.925, 133.279 80.106 C 132.300 80.164, 130.269 80.861, 128.764 81.654 M 89.641 119.352 C 82.845 128.759, 81.477 131.665, 82.988 133.486 C 84.169 134.909, 84.510 134.783, 86.208 132.289 C 88.780 128.509, 95 116.297, 95 115.025 C 95 112.876, 93.367 114.195, 89.641 119.352 M 181 153.744 C 180.175 154.067, 176.800 155.981, 173.500 157.999 C 170.200 160.016, 164.800 163.157, 161.500 164.979 C 154.601 168.787, 151.224 171, 152.311 171 C 154.423 171, 181.393 155.791, 182.523 153.963 C 183.177 152.904, 183.157 152.901, 181 153.744 M 111.750 161.227 C 108.588 162.345, 106 163.742, 106 164.330 C 106 165.017, 106.429 164.971, 107.200 164.200 C 107.860 163.540, 109.323 162.985, 110.450 162.966 C 111.578 162.947, 114.300 162.063, 116.500 161 C 121.671 158.502, 119.105 158.625, 111.750 161.227 M 129.500 162 C 127.870 162.701, 127.812 162.872, 129.191 162.930 C 130.121 162.968, 131.160 162.550, 131.500 162 C 132.211 160.850, 132.176 160.850, 129.500 162 M 122.566 164.898 C 121.503 165.314, 121.058 165.918, 121.577 166.239 C 122.097 166.560, 123.391 166.188, 124.452 165.411 C 126.524 163.896, 125.698 163.671, 122.566 164.898 M 93.813 165.683 C 94.534 165.972, 95.397 165.936, 95.729 165.604 C 96.061 165.272, 95.471 165.036, 94.417 165.079 C 93.252 165.127, 93.015 165.364, 93.813 165.683 M 112 168.784 C 103.882 171.525, 103.414 171.747, 104.170 172.503 C 104.446 172.779, 107.334 172.079, 110.586 170.947 C 113.839 169.815, 117.287 168.636, 118.250 168.328 C 119.213 168.019, 120 167.369, 120 166.883 C 120 166.398, 119.888 166.056, 119.750 166.126 C 119.612 166.195, 116.125 167.391, 112 168.784 M 136.441 167.450 C 134.566 168.851, 134.577 168.881, 136.750 168.334 C 137.988 168.022, 139 167.369, 139 166.883 C 139 165.693, 138.705 165.759, 136.441 167.450 M 148 172.500 C 146.280 173.483, 146.008 173.940, 147.128 173.965 C 148.023 173.984, 149.315 173.325, 150 172.500 C 151.523 170.665, 151.209 170.665, 148 172.500 M 177 172.653 C 175.622 173.379, 175.173 173.970, 176 173.970 C 177.724 173.969, 180.674 172.299, 179.971 171.722 C 179.712 171.509, 178.375 171.928, 177 172.653 M 143.500 175 C 143.160 175.550, 143.359 176, 143.941 176 C 144.523 176, 145 175.550, 145 175 C 145 174.450, 144.802 174, 144.559 174 C 144.316 174, 143.840 174.450, 143.500 175 M 115.500 177.125 C 112.200 178.257, 109.275 179.420, 109 179.709 C 108.062 180.693, 115.364 178.764, 119.438 176.950 C 124.921 174.509, 122.861 174.600, 115.500 177.125 M 170.500 176 C 169.181 176.567, 169.011 176.878, 170 176.914 C 170.825 176.945, 172.175 176.533, 173 176 C 174.828 174.819, 173.249 174.819, 170.500 176 M 138 177.500 C 136.550 178.329, 136.130 178.931, 137 178.933 C 137.825 178.935, 139.374 178.276, 140.441 177.468 C 142.911 175.600, 141.287 175.621, 138 177.500 M 133 180.059 C 133 180.641, 133.450 180.840, 134 180.500 C 134.550 180.160, 135 179.684, 135 179.441 C 135 179.198, 134.550 179, 134 179 C 133.450 179, 133 179.477, 133 180.059 M 136.624 196.462 C 136.932 197.266, 138.064 198.203, 139.138 198.544 C 140.212 198.885, 144.660 202.502, 149.023 206.582 C 157.044 214.083, 158.714 214.820, 163.544 212.983 C 165.762 212.140, 166.008 211.714, 164.986 210.483 C 164.309 209.668, 163.239 209, 162.607 209 C 161.976 209, 158.259 205.850, 154.348 202 C 147.253 195.017, 147.222 195, 141.649 195 C 137.159 195, 136.173 195.287, 136.624 196.462" stroke="none" fill="black" fill-rule="evenodd"/>
</svg>