<?xml version="1.0" encoding="UTF-8" standalone="no"?>
<svg width="78px" height="57px" viewBox="0 0 78 57" version="1.1" xmlns="http://www.w3.org/2000/svg" xmlns:xlink="http://www.w3.org/1999/xlink">
    <!-- Generator: Sketch 40.1 (33804) - http://www.bohemiancoding.com/sketch -->
    <title>Lindell_art_logo</title>
    <desc>Created with Sketch.</desc>
    <defs></defs>
    <g id="Page-1-Home-all-icons" stroke="none" stroke-width="1" fill="none" fill-rule="evenodd">
        <g id="Desktop" transform="translate(-170.000000, -1386.000000)" fill="#000000">
            <g id="Lindell_art_logo" transform="translate(170.000000, 1386.000000)">
                <g id="Lindell_x5F_art">
                    <path d="M44.301,38.515 C45.537,33.619 46.912,28.871 48.217,24.026 C48.646,22.434 49.179,20.844 49.392,19.18 C48.615,18.879 47.737,19.039 46.896,19.033 C40.92,18.994 34.209,19.036 28.442,19.18 C28.392,20.052 28.764,20.861 28.981,21.677 C30.463,27.258 32.287,32.8 33.68,38.564 C27.277,38.237 21.352,37.144 16.303,35.187 C11.239,33.223 6.574,31.109 3.283,27.355 C1.92,25.722 0.697,24.022 0.199,21.726 C-0.372,19.089 0.376,16.452 1.325,14.579 C3.195,10.887 6.835,8.244 10.429,6.307 C16.138,3.23 22.823,1.438 30.694,0.482 C33.309,0.164 36.024,0.176 38.917,0.041 C43.382,-0.166 48.035,0.445 51.888,1.069 C55.944,1.726 59.384,2.723 62.804,4.006 C66.007,5.208 69.126,6.863 71.762,8.901 C74.35,10.903 76.663,13.448 77.537,16.978 C78.615,21.332 76.636,24.851 74.502,27.257 C72.325,29.713 69.441,31.676 66.475,33.082 C60.14,36.084 53.001,38.02 44.301,38.515 L44.301,38.515 Z" id="Shape"></path>
                    <path d="M44.154,38.662 C42.563,44.853 40.905,50.979 39.112,56.969 C38.738,56.782 38.711,56.277 38.623,55.941 C37.117,50.226 35.295,44.496 33.826,38.711 C37.117,38.837 40.899,38.779 44.154,38.662 L44.154,38.662 Z" id="Shape"></path>
                </g>
            </g>
        </g>
    </g>
</svg>