<?xml version="1.0" encoding="UTF-8" standalone="no"?>
<svg width="40px" height="60px" viewBox="0 0 40 60" version="1.1" xmlns="http://www.w3.org/2000/svg" xmlns:xlink="http://www.w3.org/1999/xlink">
    <!-- Generator: Sketch 40.1 (33804) - http://www.bohemiancoding.com/sketch -->
    <title>Big_Publishing_logo</title>
    <desc>Created with Sketch.</desc>
    <defs></defs>
    <g id="Page-1-Home-all-icons" stroke="none" stroke-width="1" fill="none" fill-rule="evenodd">
        <g id="Desktop" transform="translate(-430.000000, -2500.000000)" fill="#000000">
            <g id="Big_Publishing_logo" transform="translate(430.000000, 2500.000000)">
                <g id="Big_x5F_Publishing">
                    <path d="M27.514717,30.4455 C27.874717,31.0935 28.4581132,31.60275 28.9879245,32.09175 C29.5283019,32.5905 30.0135849,33.1455 30.5713208,33.6285 C33.3554717,36.24975 35.9773585,38.98275 38.8920755,41.6415 C39.1713208,41.8965 39.9735849,42.4785 39.9962264,42.849 C40.0196226,43.2135 39.3984906,43.6995 39.0754717,44.01975 C37.2777358,45.807 35.6362264,47.47425 33.8475472,49.2525 C31.4090566,51.675 29.0286792,54.07725 26.5569811,56.53275 C26.2090566,56.8785 25.9381132,57.29925 25.6,57.66675 C25.2973585,57.99525 24.8686792,58.3245 24.5328302,58.69125 C24.194717,59.06025 23.7803774,59.6595 23.3909434,59.71575 C22.9524528,59.77875 22.4437736,59.68125 21.9554717,59.679 C14.845283,59.64825 7.14641509,59.817 0.122264151,59.643 C0.0498113208,52.40625 -0.0633962264,45.01875 0.0483018868,37.7265 C0.122264151,32.913 0.0120754717,28.11825 0.0113207547,23.091 C0.0113207547,15.5895 -0.0430188679,8.09025 0.0852830189,0.846 C6.54037736,0.711 13.0671698,0.7725 19.4883019,0.7725 C20.0279245,0.7725 20.6181132,0.78525 21.1818868,0.7725 C21.7728302,0.759 22.4528302,0.7125 22.9116981,0.80925 C23.2837736,0.88725 23.770566,1.5165 24.0535849,1.797 C26.5803774,4.308 28.8792453,6.726 31.4535849,9.1875 C32.6845283,10.614 34.2686792,11.8155 35.7245283,13.35825 C36.6973585,14.3895 37.8037736,15.45 38.9275472,16.5045 C39.1479245,16.71225 39.8709434,17.37525 39.8845283,17.63925 C39.9003774,17.952 39.4445283,18.33525 39.2218868,18.55425 C38.3992453,19.35975 37.6316981,20.1345 36.8656604,20.9325 C34.4890566,23.27325 32.1758491,25.6665 29.7969811,28.0305 C29.0173585,28.806 28.1335849,29.51775 27.514717,30.4455 L27.514717,30.4455 Z M21.2188679,55.911 C22.1381132,55.32 22.8467925,54.46725 23.6490566,53.71575 C25.2709434,52.19625 26.6807547,50.523 28.2513208,48.996 C28.6422642,48.61575 29.0060377,48.20925 29.3932075,47.82525 C29.7796226,47.4405 30.2649057,47.094 30.4973585,46.581 C30.5645283,44.87325 30.5343396,42.99675 30.5343396,41.2395 C30.5343396,40.67175 30.6377358,39.921 30.4973585,39.44625 C30.3916981,39.08925 29.7796226,38.598 29.4664151,38.2755 C29.0467925,37.8435 28.6407547,37.50675 28.325283,37.1775 C27.5615094,36.38025 26.7826415,35.6955 26.0792453,34.9455 C25.0867925,33.71175 23.8309434,32.7405 22.765283,31.5795 C22.6211321,31.23975 21.6996226,30.921 21.7343396,30.372 C21.7524528,30.08475 22.5049057,29.48175 22.765283,29.20125 C23.8573585,28.026 25.1237736,26.96325 26.0792453,25.7985 C26.76,24.9675 27.5886792,24.28875 28.2883019,23.52975 C29.0203774,22.7355 29.9207547,22.11675 30.4973585,21.26175 C30.5169811,18.9945 30.4973585,16.719 30.4973585,14.3835 C29.189434,12.5175 27.1366038,11.334 25.7841509,9.5175 C25.1298113,8.63775 24.205283,7.8705 23.3909434,7.1025 C22.5577358,6.31725 21.8475472,5.4045 20.9245283,4.761 C19.4377358,4.851 17.6890566,4.6395 16.3222642,4.761 C14.2671698,4.944 12.0898113,4.53225 10.210566,4.87125 C10.530566,5.61375 11.2203774,5.9895 11.72,6.55425 C14.3939623,9.22725 17.0611321,11.9055 19.8196226,14.49375 C20.2815094,15.0945 20.869434,15.573 21.4030189,16.10325 C21.9366038,16.63275 22.5569811,17.12325 22.9124528,17.823 C22,19.00125 20.8807547,19.986 19.8566038,21.042 C18.834717,22.09575 17.7592453,23.09025 16.690566,24.15225 C14.8603774,25.97025 13.0430189,27.81825 11.2415094,29.67675 C10.9818868,29.9445 10.5366038,30.2685 10.5418868,30.555 C10.549434,30.91575 11.48,31.69425 11.7939623,32.01825 C12.2822642,32.52375 12.8037736,32.949 13.1932075,33.33525 C15.9645283,36.08925 18.7245283,38.775 21.5139623,41.38425 C21.7298113,41.91375 22.9901887,42.37425 22.9864151,43.0305 C22.9849057,43.3485 22.5426415,43.67325 22.3237736,43.90875 C22.0309434,44.22375 21.7879245,44.44575 21.5509434,44.7135 C18.3841509,47.84775 15.2445283,51.009 12.0883019,54.153 C11.8792453,54.4425 11.5788679,54.68625 11.3154717,54.95775 C11.0709434,55.2105 10.6898113,55.45725 10.6898113,55.836 C14.0520755,56.00775 17.7328302,55.86225 21.2188679,55.911 L21.2188679,55.911 Z M4.13584906,5.2365 C4.06867925,6.2295 4.09886792,7.36125 4.09886792,8.45625 C4.09886792,11.7105 4.06264151,14.841 4.06188679,17.9325 C4.06113208,30.49725 4.05132075,43.206 4.17207547,55.8375 C4.48754717,55.86975 4.68,55.57275 4.87169811,55.398 C6.30339623,54.09 7.67698113,52.75875 8.9954717,51.3735 C10.1977358,50.256 11.2528302,49.068 12.4928302,47.89725 C12.8603774,47.5515 13.5086792,47.09025 13.5977358,46.65375 C13.7056604,46.12275 13.6430189,45.387 13.6339623,44.89725 C13.6135849,43.72275 13.5977358,42.5715 13.5977358,41.42175 C13.5977358,40.83675 13.7124528,40.15425 13.5977358,39.6285 C13.5260377,39.30075 12.8611321,38.76 12.5298113,38.45775 C10.0988679,36.24075 8.01207547,34.05525 5.6445283,31.79925 C5.32301887,31.4925 4.56981132,30.9555 4.57660377,30.59175 C4.58415094,30.201 5.27320755,29.7525 5.6445283,29.38425 C7.61358491,27.4275 9.48150943,25.5345 11.3879245,23.64 C12.1471698,22.8855 12.9592453,22.152 13.5969811,21.26175 L13.5969811,14.4195 C12.2015094,12.708 10.4867925,11.3145 8.88377358,9.80925 C7.90716981,8.547 6.63396226,7.4265 5.45962264,6.26025 C5.11169811,5.91375 4.57283019,5.24475 4.2090566,5.127 C4.16301887,5.142 4.13358491,5.17425 4.13584906,5.2365 L4.13584906,5.2365 Z" id="Shape"></path>
                </g>
            </g>
        </g>
    </g>
</svg>