<?xml version="1.0" encoding="UTF-8" standalone="no"?>
<svg width="61px" height="62px" viewBox="0 0 61 62" version="1.1" xmlns="http://www.w3.org/2000/svg" xmlns:xlink="http://www.w3.org/1999/xlink">
    <!-- Generator: Sketch 40.1 (33804) - http://www.bohemiancoding.com/sketch -->
    <title>Sielco_IT_logo</title>
    <desc>Created with Sketch.</desc>
    <defs></defs>
    <g id="Page-1-Home-all-icons" stroke="none" stroke-width="1" fill="none" fill-rule="evenodd">
        <g id="Desktop" transform="translate(-298.000000, -1502.000000)" fill="#000000">
            <g id="Sielco_IT_logo" transform="translate(298.000000, 1502.000000)">
                <g id="Sielco_x5F_IT">
                    <path d="M28.8030139,0.0382191781 C34.1337361,-0.215726027 38.1029722,0.815342466 41.8332917,2.2430411 C45.49075,3.64441096 48.5043194,5.94435616 51.0976667,8.308 C53.8341944,10.8024384 55.8751528,13.6977534 57.5704444,17.1714521 C59.27675,20.6655342 60.4238889,24.6539178 60.7009306,29.3854521 C60.9957639,34.3981096 59.8774306,38.8035068 58.4591806,42.4054521 C56.98925,46.1390411 54.8550972,49.0938082 52.4938889,51.7784932 C50.1589444,54.4334521 47.0826806,56.7104658 43.8217222,58.4371233 C39.0349167,60.9706301 31.7826944,62.5911233 24.7414306,61.2780822 C20.3697639,60.463589 16.8563333,59.0002192 13.7427917,56.9525205 C12.9565694,56.436137 12.1788194,55.9486301 11.5001944,55.3405205 C9.51345833,53.5629041 7.67752778,51.5245479 6.04323611,49.3180274 C4.96472222,47.8631507 3.94890278,46.1815068 3.16691667,44.5253425 C1.48348611,40.9641644 0.216888889,37.1481918 0.0364305556,32.3113425 C-0.0559166667,29.8364384 0.0279583333,27.498274 0.416833333,25.2713699 C0.794694444,23.1090137 1.34708333,21.0783014 2.10958333,19.2913425 C3.68456944,15.5959726 5.451875,12.5189041 8.03166667,9.87668493 C9.31097222,8.56619178 10.545375,7.27013699 11.9670139,6.14394521 C13.366625,5.03473973 15.0085417,4.09964384 16.7046806,3.21720548 C20.0435833,1.48205479 23.9975694,0.267534247 28.8030139,0.0382191781 L28.8030139,0.0382191781 Z M52.53625,40.6677534 C52.7353472,40.208274 52.9496944,39.7352055 53.1276111,39.2680822 C54.2264583,36.3846575 54.7720694,32.8328219 54.5661944,28.9624932 C54.3035556,24.039863 52.5599722,20.2570137 50.5469722,17.0873699 C48.5915833,14.0094521 45.6898472,11.2389863 42.3822917,9.36879452 C40.740375,8.44049315 38.9154583,7.60816438 36.7974028,7.03657534 C33.5372917,6.15583562 29.5282361,5.94265753 26.0935972,6.57030137 C22.7326667,7.18350685 20.1232222,8.35726027 17.6332361,9.83591781 C14.3900694,11.7613151 11.7441944,14.3593699 9.84811111,17.6818904 C7.88340278,20.6910137 6.32959722,24.7498904 6.12456944,29.5986301 C5.93902778,34.0116712 6.93620833,38.0994247 8.36716667,41.0499452 C8.57134722,41.4720548 8.79247222,41.9816438 9.21269444,42.1956712 C9.26945833,39.9730137 9.23133333,37.898137 9.59309722,35.9608493 C9.76677778,35.0316986 10.0395833,34.1569041 10.3132361,33.2897534 C10.9969444,31.1146575 11.7331806,29.4049863 12.8930278,27.6910685 C14.7933472,24.8866301 17.3858472,22.4159726 20.4248333,20.8634247 C24.5236944,18.7690137 30.57625,17.4525753 36.2467083,19.1248767 C38.735,19.8578356 40.8708472,20.877863 42.7203333,22.2206301 C46.4218472,24.9087123 49.066875,28.6185205 50.6740556,33.4171507 C51.5034861,35.8954521 51.7601944,38.6905479 51.77375,41.8567945 C52.26175,41.6665479 52.3540972,41.0856164 52.53625,40.6677534 L52.53625,40.6677534 Z M43.9903194,47.4104658 C45.1222083,45.5020548 45.8940278,42.9481644 45.8940278,40.0732329 C45.8931806,36.6521918 44.9129444,33.9292877 43.6090694,31.7609863 C41.7172222,28.6134247 38.6723056,25.9474247 34.5980139,24.8908767 C32.398625,24.320137 29.5206111,24.2734247 27.3635833,24.7210137 C22.5267917,25.7249041 18.7947778,28.7272329 16.8292222,32.6510685 C15.6524306,35.0011233 14.7272639,37.9788219 15.0949583,41.3030411 C15.4075833,44.130411 16.2929306,46.3258904 17.4214306,48.2156164 C17.560375,48.4491781 17.6578056,48.9154521 18.056,48.8517534 C18.3220278,48.513726 18.2652639,48.0466027 18.3101667,47.664411 C18.666,44.6000822 19.8876944,42.2568219 21.525375,40.5395068 C23.3884167,38.4773699 25.8428194,36.9103836 29.1825694,36.4254247 C33.3492083,35.8215616 36.7711389,37.5762466 38.9552778,39.4795616 C41.030125,41.2869041 42.4704028,43.6242192 43.0168611,46.7743288 C43.0897222,47.195589 43.0371944,47.7119726 43.3549028,48.0882192 C43.7124306,48.0559452 43.8369722,47.6686575 43.9903194,47.4104658 L43.9903194,47.4104658 Z M27.0679028,43.8484384 C25.7318333,44.8005205 24.4338889,46.6087123 24.4025417,48.8950685 C24.3822083,50.4212877 24.8405556,51.7827397 25.459875,52.7968219 C26.5417778,54.5667945 29.2613611,55.969863 31.9750139,55.3838356 C34.1794861,54.9082192 36.2526389,52.7874795 36.8397639,50.6344658 C37.3209861,48.8712877 36.8185833,46.8838904 36.1204722,45.6719178 C35.136,43.9613973 33.100125,42.5999452 30.4093472,42.7035616 C28.9936389,42.7579178 27.8854722,43.2658082 27.0679028,43.8484384 L27.0679028,43.8484384 Z" id="Shape"></path>
                </g>
            </g>
        </g>
    </g>
</svg>