<?xml version="1.0" encoding="UTF-8" standalone="no"?>
<svg width="58px" height="59px" viewBox="0 0 58 59" version="1.1" xmlns="http://www.w3.org/2000/svg" xmlns:xlink="http://www.w3.org/1999/xlink">
    <!-- Generator: Sketch 40.1 (33804) - http://www.bohemiancoding.com/sketch -->
    <title>Labor_Abbigliamento_logo</title>
    <desc>Created with Sketch.</desc>
    <defs></defs>
    <g id="Page-1-Home-all-icons" stroke="none" stroke-width="1" fill="none" fill-rule="evenodd">
        <g id="Desktop" transform="translate(-662.000000, -1261.000000)" fill="#000000">
            <g id="Labor_Abbigliamento_logo" transform="translate(662.000000, 1261.000000)">
                <g id="Labor_x5F_Abbigliamento">
                    <path d="M35.2955588,23.1314203 C36.1979706,23.3734058 37.1285294,23.2639565 38.0121765,23.2554058 C38.9649118,23.246 39.9381176,23.2117971 40.8524706,23.2554058 C48.2201765,23.6068406 52.8772353,27.4153333 55.7951471,32.3337101 C57.2587941,34.8005942 58.0742059,38.2106232 57.9769706,42.0721304 C57.9300588,43.9054058 57.5189412,45.4838696 56.9474706,47.0247101 C55.3422353,51.3547971 52.3415882,54.6263043 48.5093235,56.6391449 C47.1838529,57.3351739 45.7534706,57.7652754 44.0637941,58.1663043 C40.7586471,58.9495507 36.4402059,58.4416377 32.7034706,58.6203478 C30.6913824,58.7161159 28.7176765,58.6194928 26.7755294,58.6203478 C24.8035294,58.6203478 22.8392059,58.6194928 20.8075,58.6203478 C18.6666176,58.6203478 16.7270294,58.6861884 15.0032353,58.4134203 C13.3237941,58.1474928 11.7270882,57.6951594 10.3930882,57.0102464 C5.12361765,54.3065072 1.32461765,50.0388406 0.266970588,43.1452464 C-0.00938235294,41.347029 0.0938235294,39.3598406 0.0196176471,37.3683768 C-0.0537352941,35.4068406 0.102352941,33.4008406 0.102352941,31.4675217 C0.102352941,27.4828841 0.185088235,23.3545942 0.185088235,19.5418261 C0.185088235,17.5212899 0.209823529,15.6084928 0.596205882,13.9299855 C0.964676471,12.3292899 1.51141176,10.8654058 2.20144118,9.55543478 C3.53373529,7.02613043 5.38973529,4.71486957 7.75835294,3.11844928 C10.0843235,1.55024638 13.1992647,0.194956522 16.8140294,0.0230869565 C23.548,-0.295855072 28.3270294,2.73623188 31.262,6.37798551 C32.7734118,8.25315942 34.0221176,10.6482174 34.7198235,13.310058 C35.4456765,16.0856232 35.1966176,19.5888551 35.2955588,23.1314203 L35.2955588,23.1314203 Z" id="Shape"></path>
                </g>
            </g>
        </g>
    </g>
</svg>