<?xml version="1.0" encoding="UTF-8" standalone="no"?>
<svg width="61px" height="61px" viewBox="0 0 61 61" version="1.1" xmlns="http://www.w3.org/2000/svg" xmlns:xlink="http://www.w3.org/1999/xlink">
    <!-- Generator: Sketch 40.1 (33804) - http://www.bohemiancoding.com/sketch -->
    <title>Ospinas_y_Cia_logo</title>
    <desc>Created with Sketch.</desc>
    <defs></defs>
    <g id="Page-1-Home-all-icons" stroke="none" stroke-width="1" fill="none" fill-rule="evenodd">
        <g id="Desktop" transform="translate(-784.000000, -1262.000000)" fill="#000000">
            <g id="Ospinas_y_Cia_logo" transform="translate(784.000000, 1262.000000)">
                <g id="Ospinas_x5F_y_x5F_Cia">
                    <path d="M60.5038171,0.179280488 C60.6890488,19.4396585 60.619122,39.1062073 60.619122,59.0561829 C60.619122,59.6468415 60.7061585,60.2635366 60.5038171,60.8289024 C43.2876829,60.9680122 25.4176585,60.8289024 7.59896341,60.8289024 C6.32540244,60.8289024 5.04068293,60.7991463 3.78423171,60.8289024 C2.55604878,60.8579146 1.33009756,60.9814024 0.123487805,60.7515366 C-0.0163658537,56.6444512 0.0468658537,52.1996341 0.0468658537,48.0352683 C0.0468658537,46.627061 -0.0654634146,45.215878 0.239536585,43.9512439 C-0.0706707317,43.1322073 0.12497561,42.2425 0.0855487805,41.3691585 C-0.037195122,38.6680488 0.0468658537,35.7787317 0.0468658537,32.9690122 C0.0468658537,22.5461951 0.098195122,12.5756707 0.00818292683,2.6825122 C6.39323731e-14,1.83 -0.0312439024,0.967073171 0.123487805,0.141341463 C13.061439,-0.1525 25.9748415,0.103402439 38.925439,0.102658537 C46.1264146,0.101914634 53.3221829,0.0386829268 60.5038171,0.179280488 L60.5038171,0.179280488 Z M24.2065854,18.2509024 C21.182622,18.2509024 18.1363415,18.0909634 15.112378,18.2122195 C11.7856463,18.346122 8.03935366,18.1050976 4.86289024,18.3275244 C4.73270732,30.8310366 4.73865854,43.7169146 4.86289024,56.0895 C11.0134756,56.2672927 17.2920122,56.1668659 23.5891463,56.1668659 C29.8714024,56.1668659 36.2459024,56.3930122 42.4314512,56.1281829 C42.6382561,55.3865122 42.5475,54.6150854 42.5475,53.8540732 C42.5475,49.7975732 42.684378,46.139061 42.585439,42.2558902 C42.4061585,35.1657561 42.5475,27.7862439 42.5475,20.6782561 C42.5475,19.9031098 42.639,19.1123415 42.4314512,18.3662073 C36.3857561,18.2553659 30.2931951,18.2501585 24.2065854,18.2509024 L24.2065854,18.2509024 Z" id="Shape"></path>
                    <path d="M30.988,29.8877683 C31.2015,30.7506951 31.0795,31.6813171 31.0653659,32.5851585 C30.9612195,39.1292683 31.277378,45.9166341 31.0266829,52.6987927 C27.3644512,52.8193049 23.4522683,52.8289756 19.6985366,52.7374756 C15.897939,52.6459756 12.0713049,52.933122 8.33170732,52.6987927 C8.12787805,50.9171463 8.26326829,49.0536707 8.25434146,47.1500244 C8.22979268,41.5938171 8.1442439,35.5607683 8.29302439,29.8490854 C15.8094146,29.7114634 23.4559878,29.6787317 30.988,29.8877683 L30.988,29.8877683 Z M21.0078049,36.5151951 C19.9157561,36.4713049 18.5201951,36.4274146 17.5397317,36.5151951 C15.2894268,36.7167927 12.8970366,36.2689634 10.7575732,36.6305 C10.507622,38.3117195 10.6802073,40.1089878 10.6802073,41.9099756 C10.6802073,44.750939 10.5507683,47.6320732 10.7575732,50.2327561 C14.6519024,50.3450854 18.7247683,50.309378 22.7024146,50.310122 C23.264061,50.310122 23.843561,50.3979024 24.3598293,50.1940732 C24.5093537,45.7805 24.5190244,40.999439 24.3598293,36.6305 C23.2938171,36.3872439 22.157878,36.5613171 21.0078049,36.5151951 L21.0078049,36.5151951 Z" id="Shape"></path>
                    <path d="M21.4318293,39.5592439 C21.6371463,40.9272805 21.5471341,42.5348537 21.5471341,44.1059756 L21.5471341,46.4567073 C21.5471341,47.2192073 21.6326829,47.9854268 21.4318293,48.6527073 C18.5618537,48.6913902 15.2834756,48.7672683 12.4149878,48.6140244 C12.2662073,45.704622 12.3391098,42.5839512 12.3763049,39.5971829 C12.6768415,39.4402195 13.1365732,39.4469146 13.4936463,39.4431951 C14.7411707,39.4312927 16.1352439,39.4431951 17.5010488,39.4431951 C18.8713171,39.443939 20.2356341,39.3516951 21.4318293,39.5592439 L21.4318293,39.5592439 Z" id="Shape"></path>
                </g>
            </g>
        </g>
    </g>
</svg>