<?xml version="1.0" encoding="UTF-8" standalone="no"?>
<svg width="61px" height="61px" viewBox="0 0 61 61" version="1.1" xmlns="http://www.w3.org/2000/svg" xmlns:xlink="http://www.w3.org/1999/xlink">
    <!-- Generator: Sketch 40.1 (33804) - http://www.bohemiancoding.com/sketch -->
    <title>ICSID_Congress_logo</title>
    <desc>Created with Sketch.</desc>
    <defs></defs>
    <g id="Page-1-Home-all-icons" stroke="none" stroke-width="1" fill="none" fill-rule="evenodd">
        <g id="Desktop" transform="translate(-59.000000, -2168.000000)" fill="#000000">
            <g id="ICSID_Congress_logo" transform="translate(59.000000, 2168.000000)">
                <g id="ICSID_x5F_Congress">
                    <path d="M37.2806316,1.65903947 C37.1963553,2.78914474 36.6401316,3.92888158 36.2765395,5.19222368 C36.1176184,5.74603947 35.9795658,6.34881579 35.7949605,6.95961842 C35.6400526,7.4725 35.3551184,8.37786842 35.0725921,8.64675 C34.587,9.10826316 33.6350789,9.07535526 32.9440132,9.28965789 C32.1983684,9.52001316 31.5610789,9.86434211 30.7753026,9.81136842 C30.5072237,9.21180263 30.6155789,8.46134211 30.6155789,7.72211842 C30.6155789,5.57347368 30.5505658,3.09334211 30.6958421,1.05546053 C30.9406447,0.725578947 31.3483816,0.809855263 31.8604605,0.814671053 C32.6775395,0.821894737 33.6519342,0.801026316 34.5910132,0.894934211 C35.6609211,1.00248684 36.7725658,1.17826316 37.2806316,1.65903947 L37.2806316,1.65903947 Z" id="Shape"></path>
                    <path d="M23.546,9.81136842 C23.2594605,8.76634211 22.9528553,7.80960526 22.6221711,6.83922368 C22.3035263,5.90175 21.8211447,4.99798684 21.7384737,3.86788158 C22.2979079,3.23139474 23.2931711,2.81402632 24.2290395,2.42153947 C25.1793553,2.02263158 26.2027105,1.66947368 27.16025,1.45838158 C27.2991053,1.42707895 27.5415,1.36527632 27.7630263,1.49771053 C28.1555132,2.02022368 28.0840789,2.88385526 28.0840789,3.70735526 C28.0840789,5.39689474 28.0078289,6.96925 28.0840789,8.76794737 C28.1161842,9.53205263 28.2486184,10.6260395 28.0431447,11.1774474 C27.8448947,11.712 27.1064737,11.9672368 26.5976053,12.3019342 C26.3287237,12.4785132 26.108,12.6278026 25.8343026,12.8236447 C25.6553158,12.9512632 25.3005526,13.3100395 25.0316711,13.2650921 C24.5733684,13.1872368 24.3807368,12.0563289 24.2282368,11.5779605 C24.0075132,10.8901053 23.8036447,10.3515395 23.546,9.81136842 L23.546,9.81136842 Z" id="Shape"></path>
                    <path d="M22.7024342,15.3936711 C22.5290658,15.8495658 22.1365789,16.0863421 21.899,16.4780263 C21.6132632,16.6249079 21.3668553,17.3617237 20.8949079,17.3609211 C20.3940658,17.3609211 19.5914342,15.9539079 19.3289737,15.5943289 C18.1178026,13.9376974 17.0366579,12.4423947 15.7949868,10.7753289 C15.5261053,10.4141447 15.1954211,10.0425263 15.1922105,9.73030263 C15.189,9.31052632 15.7002763,8.83536842 15.9555132,8.52555263 C16.9210789,7.35772368 17.7678553,6.56793421 18.9276579,5.59434211 C19.0328026,5.61681579 19.0311974,5.55260526 19.1283158,5.55340789 C19.7953026,5.56464474 20.0938816,7.19960526 20.2929342,7.76305263 C20.8973158,9.47747368 21.4069868,11.1204605 21.9792632,12.7827105 C22.2722237,13.6326974 22.7265132,14.47225 22.7024342,15.3936711 L22.7024342,15.3936711 Z" id="Shape"></path>
                    <path d="M42.50175,10.6549342 C42.3885789,11.5033158 41.7023289,12.0651579 41.2568684,12.70325 C40.3643421,13.9818421 39.4886711,15.2443816 38.5656447,16.5189605 C38.1177763,17.1361842 37.7180658,17.8537368 37.0398421,18.2454211 C36.4515132,18.1354605 35.3286316,18.2582632 35.1528553,17.6835789 C35.0501184,17.3488816 35.42575,16.3383684 35.5943026,15.8351184 C35.9924079,14.6496316 36.3415526,13.4986579 36.7589211,12.3019342 C36.9820526,11.6606316 37.1867237,10.4277895 37.8031447,10.2134868 C38.0648026,10.1227895 38.6049737,10.1524868 38.8875,10.1332237 C39.4509474,10.0938947 40.2222763,10.1436579 40.8964868,10.2134868 C41.4984605,10.2752895 42.2063816,10.2744868 42.50175,10.6549342 L42.50175,10.6549342 Z" id="Shape"></path>
                    <path d="M34.3895526,11.0161184 C34.0941842,12.5716184 33.367,14.4826842 32.8236184,16.2372368 C32.5242368,17.2036053 32.2007763,18.2799342 30.7351711,17.7630395 C30.5353158,16.7131974 30.6147763,15.2443816 30.6147763,14.0283947 C30.6147763,13.5315658 30.5048158,12.4375789 30.6950395,12.0202105 C30.8587763,11.6598289 31.6630132,11.4639868 32.1413816,11.2978421 C32.7666316,11.0787237 33.3661974,10.7608816 33.9079737,10.7761316 C34.1503684,10.78175 34.2996579,10.8419474 34.3895526,11.0161184 L34.3895526,11.0161184 Z" id="Shape"></path>
                    <path d="M45.4730921,11.3781053 C45.5228553,11.2665395 45.7203026,11.3034605 45.8752105,11.2978421 C47.2172105,11.7713947 48.4693158,12.3236053 49.6901184,13.0644342 C50.03525,13.2731184 50.6725395,13.5195263 50.6942105,13.908 C50.7158816,14.2860395 50.1564474,14.5773947 49.8105132,14.8318289 C48.7911711,15.5814868 47.6843421,16.4322763 46.7581053,17.1201316 C45.6649211,17.9331974 44.8333947,18.6314868 43.7056974,19.4493684 C43.3878553,19.6805263 42.8910263,20.0730132 42.5812105,20.0922763 C42.1558158,20.1179605 41.7031316,19.7985132 41.2568684,19.6098947 C40.8868553,19.4541842 40.2030132,19.2687763 40.1323816,18.9669868 C39.9935263,18.3746447 41.0305263,17.3512895 41.3371316,16.9186711 C42.3958026,15.4233684 43.0563684,14.5428816 44.0283553,13.1840263 C44.4633816,12.5764342 44.9513816,11.7617632 45.4730921,11.3781053 L45.4730921,11.3781053 Z" id="Shape"></path>
                    <path d="M13.6664079,12.3813947 C13.7001184,12.3741711 13.7041316,12.3974474 13.7057368,12.4215263 C14.3630921,12.8340789 14.7692237,13.5556447 15.2323421,14.1889211 C16.36325,15.7355921 17.5383026,17.2557763 18.6860658,18.8875263 C18.9196316,19.2190132 19.2326579,19.6058816 19.2479079,19.93175 C19.2679737,20.3394868 18.6322895,21.6341316 18.2438158,21.6983421 C17.7084605,21.7874342 16.9058289,20.9470789 16.5173553,20.6541184 C14.9161053,19.4501711 13.1206184,18.5118947 11.8588816,17.0398684 C11.8669079,15.8993289 12.5643947,14.5822105 12.9825658,13.4649474 C13.1527237,13.0154737 13.1663684,12.4753026 13.6664079,12.3813947 L13.6664079,12.3813947 Z" id="Shape"></path>
                    <path d="M28.0439474,18.0848947 C27.7758684,18.3786579 27.3231842,18.4878158 26.7589342,18.4862105 C26.3006316,18.2486316 26.2195658,17.6354211 26.0365658,17.0808026 C25.8945,16.6538026 25.4996053,15.9386579 25.5541842,15.4739342 C25.6175921,14.9345658 27.1417895,13.8558289 27.6025,13.6664079 C28.3369079,13.3662237 28.0848816,15.4362105 28.0848816,16.0365789 C28.0840789,16.7485132 28.2181184,17.5238553 28.0439474,18.0848947 L28.0439474,18.0848947 Z" id="Shape"></path>
                    <path d="M0.694276316,20.7753158 C0.894934211,19.2519211 1.43751316,17.9460395 2.05955263,16.6794868 C2.28669737,16.2163684 2.97375,14.4907105 3.50509211,14.5107763 C4.10867105,14.5316447 4.68255263,15.1785658 5.15209211,15.5148684 C6.21397368,16.2749605 7.12496053,16.9355263 8.24463158,17.7229079 C8.71497368,18.0543947 9.51359211,18.5423947 9.65084211,18.9685921 C9.85471053,19.6042763 9.57378947,20.4358026 9.53044737,21.0971711 C9.46864474,22.0137763 9.70221053,22.9279737 9.36992105,23.6270658 C8.60260526,23.7538816 7.84572368,23.3646053 7.12094737,23.1053553 C5.66176316,22.5812368 4.13355263,22.1863421 2.66232895,21.6991447 C1.96243421,21.4679868 1.1285,21.3756842 0.694276316,20.7753158 L0.694276316,20.7753158 Z" id="Shape"></path>
                    <path d="M52.8629211,15.7949868 C52.8797763,15.7058947 53.0611711,15.7789342 53.1446447,15.7548553 C54.1230526,16.2492763 54.7153947,17.0535132 55.43375,17.9235658 C55.7355395,18.2887632 56.1376579,18.7390395 56.4370395,19.1684474 C56.6545526,19.4798684 57.2460921,20.2239079 57.2003421,20.6147895 C57.1305132,21.2143553 55.7515921,21.4045789 55.0725658,21.6188816 C53.0403026,22.2577763 51.3459474,22.9063026 49.2888026,23.5861316 C48.8874868,23.7193684 48.4115263,23.9136053 48.0439211,23.8678553 C47.5117763,23.8012368 47.0149474,23.1671579 46.5975789,22.8236316 C46.0999474,22.4134868 45.5766316,22.0811974 45.3526974,21.6188816 C45.4024605,21.1910789 45.8342763,20.9366447 46.1151974,20.6950526 C46.98525,19.947 47.9933553,19.2776053 48.9669474,18.6066053 C50.2431316,17.6458553 51.4559079,16.6241053 52.8629211,15.7949868 L52.8629211,15.7949868 Z" id="Shape"></path>
                    <path d="M25.3936579,23.4665395 C24.8960263,23.3485526 24.7186447,22.8123947 24.4698289,22.4624474 C23.9336711,21.7087763 23.4753684,21.0843289 22.8637632,20.2528026 C22.6205658,19.9229211 22.1502237,19.5055526 22.1405921,19.0889868 C22.1333684,18.7607105 22.8653684,17.5888684 23.3052105,17.6025132 C23.7458553,17.6169605 23.8863158,18.5094868 24.0283816,18.9276579 C24.3775263,19.9534211 24.7595789,20.9302237 25.0726053,21.9399342 C25.2315263,22.4552237 25.5036184,22.9705132 25.3936579,23.4665395 L25.3936579,23.4665395 Z" id="Shape"></path>
                    <path d="M31.5779342,19.8113553 C31.5723158,20.2776842 31.3941316,20.7062895 31.2568816,21.0963684 C31.1236447,21.4768158 31.0369605,21.9254868 30.7359737,22.1807237 C30.7712895,21.4222368 30.1508553,19.2567368 31.3780789,19.5705658 C31.4326579,19.6620658 31.5161316,19.7262763 31.5779342,19.8113553 L31.5779342,19.8113553 Z" id="Shape"></path>
                    <path d="M33.3043947,23.4256053 C33.2867368,22.7762763 33.5949474,22.1470132 33.7875789,21.5378158 C33.9834211,20.9141711 34.1383289,20.2736711 34.4698158,19.7712237 C34.9618289,19.5288289 35.7845263,19.6556447 35.8358947,20.0922763 C35.8712105,20.3876447 35.4602632,20.7584605 35.27325,21.0153026 C34.8253816,21.6309211 34.5051316,22.1686842 34.0685,22.7425658 C33.8606184,23.0162632 33.6800263,23.4119605 33.3043947,23.4256053 L33.3043947,23.4256053 Z" id="Shape"></path>
                    <path d="M28.0038158,22.4215132 C27.8031579,22.1502237 27.2188421,21.1373026 27.2814474,20.5746579 C27.3159605,20.2568158 27.6988158,19.8530921 28.0848816,20.2134737 C28.10575,20.8427368 28.2462105,21.9238816 28.0038158,22.4215132 L28.0038158,22.4215132 Z" id="Shape"></path>
                    <path d="M13.3453553,21.5386184 C14.6544474,22.5314737 16.2075395,23.2811316 17.2405263,24.5508947 C17.1939737,25.1015 17.1241447,26.0285395 16.5574868,26.1168289 C16.3576316,26.1481316 16.0092895,25.9410526 15.7949868,25.8760395 C15.1063289,25.6673553 14.3317895,25.5509737 13.3846842,25.193 C12.8734079,25.0003684 11.5281974,24.7033947 11.2962368,24.2290395 C11.0313684,23.6848553 11.0899605,21.7224211 11.1365132,20.9759737 C11.1509605,20.7383947 11.2135658,20.4012895 11.3773026,20.3330658 C11.9728553,20.0938816 12.9488553,21.1549605 13.3453553,21.5386184 L13.3453553,21.5386184 Z" id="Shape"></path>
                    <path d="M35.6344342,25.1127368 C35.6215921,24.6712895 35.9883947,24.2667632 36.2372105,23.9079868 C36.4908421,23.5435921 36.7741711,23.1872237 37.0406447,22.8236316 C37.5703816,22.0996579 38.0880789,21.1886711 38.7277763,20.6950526 C39.3393816,20.5457632 40.5682105,20.8756447 40.6155658,21.3780921 C40.6532895,21.7778026 39.8667105,22.2529605 39.5304079,22.5025789 C38.6234342,23.1767895 37.8224079,23.7225789 36.9603816,24.3502368 C36.5325789,24.6600526 36.1352763,25.0982895 35.6344342,25.1127368 L35.6344342,25.1127368 Z" id="Shape"></path>
                    <path d="M23.0636184,25.1536711 C22.3958289,25.0926711 21.9383289,24.6070789 21.3772895,24.1897105 C20.9719605,23.8871184 20.0320789,23.4464737 19.93175,22.9440263 C19.8579079,22.5788289 20.1420395,21.8163289 20.5337237,21.7794079 C21.0385789,21.7320526 21.7489079,23.0242895 21.9800658,23.3461447 C22.4520132,24.0035 22.9456316,24.5244079 23.0636184,25.1536711 L23.0636184,25.1536711 Z" id="Shape"></path>
                    <path d="M43.4263816,22.8637632 C43.9304342,22.7658421 44.3389737,23.1294342 44.8317895,23.5066711 C45.1656842,23.7619079 45.8382895,24.1399474 45.8358816,24.4706316 C45.8318684,24.9762895 44.3221184,25.3037632 43.9079605,25.4337895 C43.5732632,25.5397368 43.1711447,25.63525 42.7842763,25.7548421 C42.3982105,25.8752368 42.0265921,26.0959605 41.6597895,26.0365658 C41.2897763,25.9763684 40.8459211,25.3679737 40.8563553,24.9923421 C40.8716053,24.47625 41.6485526,24.0773421 41.9808421,23.8277237 C42.4391447,23.4817895 42.89825,22.9665 43.4263816,22.8637632 L43.4263816,22.8637632 Z" id="Shape"></path>
                    <path d="M60.0922237,29.8916053 C59.6162632,30.1604868 58.9733553,30.0529342 58.3657632,30.0529342 C56.5734868,30.0529342 54.5323947,30.0850395 52.7834605,30.012 C52.1871053,29.5312237 51.9101974,28.7606974 51.4583158,28.1242105 C51.0240921,27.5126053 50.4510132,26.9395263 50.2535658,26.2364211 C50.58425,25.6472895 51.3949079,25.5052237 52.0201579,25.3133947 C53.9898158,24.7074079 56.1818026,23.8325395 58.1249737,23.3453421 C58.7606579,23.1864211 58.9805789,24.0307895 59.1691974,24.6311579 C59.5087105,25.7155132 59.8193289,26.82475 60.0528947,28.04475 C60.1692763,28.6587632 60.2976974,29.3634737 60.0922237,29.8916053 L60.0922237,29.8916053 Z" id="Shape"></path>
                    <path d="M0.453486842,23.6671974 C0.446263158,23.6326842 0.469539474,23.6294737 0.494421053,23.6270658 C2.01781579,24.0163421 3.74909211,24.5420658 5.35355263,25.0726053 C6.039,25.29975 6.88738158,25.5702368 7.72292105,25.8359079 C8.38348684,26.0461974 9.55773684,26.2942105 9.89163158,26.7589342 C10.1492763,27.1177105 10.2391711,27.7943289 10.3740132,28.2847368 C10.5233026,28.8281184 10.7143289,29.3305658 10.7351974,29.8514737 C10.4663158,30.2937237 9.75036842,30.1323947 9.16846053,30.1323947 C6.93473684,30.1331974 4.78047368,30.0914605 2.26101316,30.0922632 C1.65984211,30.0922632 0.910986842,30.14925 0.654144737,29.9718684 C0.351552632,29.7615789 0.190223684,28.68525 0.132434211,28.2052763 C0.0730394737,27.7012237 0.0385263158,26.7581316 0.0120394737,25.9555 C-0.0128421053,25.1568816 -0.0313026316,23.9818289 0.374026316,23.7065263 C0.374026316,23.668 0.422184211,23.6760263 0.453486842,23.6671974 L0.453486842,23.6671974 Z" id="Shape"></path>
                    <path d="M21.4174211,27.5631711 C21.0482105,27.7140658 20.5353289,27.4756842 20.0521447,27.3223816 C19.6163158,27.1843289 19.0047105,27.0615263 18.8072632,26.84 C18.5135,26.5101184 18.62025,25.7684868 19.1684474,25.7957763 C19.5545132,25.8150395 20.0649868,26.3744737 20.3731974,26.5984079 C20.8114342,26.9178553 21.2649211,27.0679474 21.4174211,27.5631711 L21.4174211,27.5631711 Z" id="Shape"></path>
                    <path d="M37.4812895,27.3617105 C37.6570658,26.8993947 38.56725,26.1778289 39.0881579,26.0373684 C39.2053421,26.0052632 39.3738947,26.1168289 39.4894737,26.1978947 C39.8153421,26.7798026 39.1796579,26.9933026 38.6459079,27.1618553 C38.2165,27.2966974 37.7260921,27.5230395 37.4812895,27.3617105 L37.4812895,27.3617105 Z" id="Shape"></path>
                    <path d="M50.4140921,29.8522763 C50.1861447,30.1636974 49.5970132,30.0368816 49.2093421,30.0529342 C47.4154605,30.1251711 45.2082237,30.1147368 43.4263816,30.0529342 C43.0748289,29.7471316 42.8324342,29.3337763 42.8236053,28.6876579 C43.3814342,28.0808684 44.3550263,27.9596711 45.2331053,27.6426316 C45.6360263,27.4973553 46.0830921,27.3625132 46.5189211,27.2011842 C47.0045132,27.0197895 47.4772632,26.6818816 48.0447237,26.7589342 C48.6121842,26.8367895 49.0937632,27.6883816 49.41,28.1242105 C49.8554605,28.7398289 50.3330263,29.1443553 50.4140921,29.8522763 L50.4140921,29.8522763 Z" id="Shape"></path>
                    <path d="M16.1971053,30.0529342 C15.7283684,30.1869737 15.0726184,30.1331974 14.4297105,30.1331974 C13.8775,30.1331974 13.0748684,30.2527895 12.7425789,30.0128026 C12.4375789,29.7936842 12.3276184,29.1266974 12.2200658,28.8080526 C12.0723816,28.3730263 11.8075132,27.8697763 12.0603421,27.4829079 C12.7859211,27.4122763 13.3975263,27.7694474 14.3895789,28.0856842 C15.5228947,28.4452632 16.9588026,28.6306711 16.1971053,30.0529342 L16.1971053,30.0529342 Z" id="Shape"></path>
                    <path d="M41.2568684,29.8113421 C41.2030921,29.8378289 41.1814211,29.8972237 41.1758026,29.9718684 C40.6733553,30.1315921 39.4011842,30.2198816 38.9669605,29.9317368 C39.3233289,29.4316974 40.1083026,29.3594605 40.7744868,29.1684342 C41.0200921,29.2992632 41.2905789,29.4036053 41.2568684,29.8113421 L41.2568684,29.8113421 Z" id="Shape"></path>
                    <path d="M19.7704211,29.9325395 C19.5753816,30.3298421 18.3553816,30.1990132 18.0840921,29.9325395 C18.1450921,28.9870395 19.4397368,29.6965658 19.7704211,29.9325395 L19.7704211,29.9325395 Z" id="Shape"></path>
                    <path d="M53.1847763,37.2814342 C52.4383289,37.3921974 51.7039211,36.9884737 50.9358026,36.7597237 C49.4677895,36.3230921 48.05275,35.9057237 46.5181184,35.3543158 C45.9105263,35.1368026 44.7868421,34.9762763 44.4296711,34.5508816 C44.1262763,34.1905 44.11825,33.3718158 44.14875,32.86375 C44.7322632,32.4624342 45.7010395,32.6229605 46.5983816,32.6229605 C47.4973289,32.6229605 48.4484474,32.6598816 49.2494737,32.6229605 C49.9220789,32.5916579 51.4093553,32.3765526 51.9800263,32.6630921 C52.4238816,32.8854211 52.7401184,34.2924342 52.9038553,34.8318026 C53.0258553,35.2347237 53.0916711,35.6649342 53.1847763,36.0766842 C53.2738684,36.4763947 53.4945921,36.9611842 53.1847763,37.2814342 L53.1847763,37.2814342 Z" id="Shape"></path>
                    <path d="M1.57797368,32.7834868 C2.16951316,32.5105921 3.53478947,32.6229605 4.66971053,32.6229605 C6.68271053,32.6229605 8.17078947,32.6630921 10.2118816,32.6630921 C10.8555921,32.6630921 11.7665789,32.5707895 12.139,32.7441579 C12.5138289,32.9167237 13.4585263,34.3735 13.3445526,34.9931316 C13.25225,35.4931711 11.9062368,35.7195132 11.2954342,35.9161579 C9.34343421,36.5478289 7.77990789,37.1056579 5.67380263,37.7236842 C5.28693421,37.8376579 4.82622368,38.0535658 4.46905263,38.0054079 C3.95777632,37.9355789 3.72180263,37.3191579 3.46496053,36.92025 C2.87984211,36.0156842 2.44963158,35.2684342 1.97928947,34.2699605 C1.78023684,33.8477763 1.41343421,33.3774342 1.57797368,32.7834868 L1.57797368,32.7834868 Z" id="Shape"></path>
                    <path d="M42.3010921,33.7875789 C41.7882105,33.9135921 41.1693816,33.6760132 40.6540921,33.5058553 C40.1508421,33.3397105 39.5143553,33.2145 39.2486842,32.8228158 C39.4228553,32.5322632 40.0505132,32.6879737 40.6139605,32.6622895 C41.7215921,32.6125263 42.7690263,32.5426974 42.3010921,33.7875789 L42.3010921,33.7875789 Z" id="Shape"></path>
                    <path d="M20.0521447,32.9046842 C19.9245263,33.2409868 19.4204737,33.2955658 19.0079211,33.4263947 C18.2478289,33.6671842 17.4748947,33.9577368 16.6786842,34.1888947 C16.3102763,34.2964474 15.7564605,34.5179737 15.4338026,34.4698158 C15.0493421,34.4120263 13.8349605,33.0331053 14.5902368,32.7024211 L18.8473947,32.7024211 C19.2711842,32.7032237 19.764,32.6358026 20.0521447,32.9046842 L20.0521447,32.9046842 Z" id="Shape"></path>
                    <path d="M37.7630132,35.2331184 C38.7237632,35.4626711 40.3402632,36.03575 41.5377895,36.3977368 C41.9559605,36.5245526 42.5129868,36.6770526 42.6622763,36.8801184 C42.9351711,37.2501316 42.8918289,38.5905263 42.4616184,38.9284342 C41.4743816,38.5897237 40.7086711,37.8087632 39.8907895,37.2019737 C39.2783816,36.7468816 38.6218289,36.3495789 38.003,35.8768289 C37.8384605,35.7508158 37.5029605,35.5951053 37.6016842,35.3149868 C37.6618816,35.2925132 37.7036184,35.2547895 37.7630132,35.2331184 L37.7630132,35.2331184 Z" id="Shape"></path>
                    <path d="M21.4174211,35.4345789 C21.4037763,35.7548289 21.0722895,35.9562895 20.8154474,36.1569474 C20.5850921,36.3367368 20.3162105,36.5197368 20.0521447,36.7187895 C19.6219342,37.0438553 18.9228421,37.7349211 18.4051447,37.7228816 C18.0030263,37.71325 17.5928816,37.3079211 17.4821184,36.8391842 C17.6996316,36.2677105 18.5207237,36.2010921 19.2085789,35.9956184 C19.9710789,35.7684737 20.7327763,35.3133816 21.4174211,35.4345789 L21.4174211,35.4345789 Z" id="Shape"></path>
                    <path d="M16.6778816,38.8072368 C16.4756184,39.45175 15.8006053,39.7912632 15.2724737,40.1725132 C14.7507632,40.5505526 14.2041711,40.9438421 13.6664079,41.3371316 C13.2145263,41.6678158 12.7096711,42.1092632 12.0996711,42.5426842 C11.6445789,42.8661447 10.9286316,43.5371447 10.3732105,43.5467763 C9.62435526,43.5596184 8.66761842,42.5611447 8.2045,42.1815 C7.93240789,41.9575658 7.53590789,41.6525658 7.24053947,41.3780658 C7.01098684,41.1637632 6.45476316,40.7785 6.47803947,40.4141053 C6.50934211,39.9148684 7.87622368,39.6628421 8.40515789,39.4910789 C9.88922368,39.0070921 11.2207895,38.5841053 12.6623158,38.125 C13.3999342,37.8906316 14.0893947,37.5366711 14.7507632,37.4026316 C15.6761974,37.2148158 16.3865263,38.1763684 16.6778816,38.8072368 L16.6778816,38.8072368 Z" id="Shape"></path>
                    <path d="M52.7834605,46.3182632 C52.1253026,46.3070263 51.6156316,45.7764868 51.0963289,45.3944342 C50.6043158,45.03325 50.0826053,44.6736711 49.6098553,44.3100789 C48.5953289,43.5299211 47.4997368,42.9448026 46.5574474,42.2216316 C46.4121711,42.1100658 46.2492368,41.8371711 46.0750658,41.6991184 C45.4931579,41.236 44.4962895,40.8571579 44.3084737,40.2535789 C44.1993158,39.9052368 44.3566316,39.4332895 44.3887368,38.8883026 C44.4200395,38.3521447 44.3108816,37.8015395 44.6303289,37.6024868 C44.9305132,37.4162763 45.6223816,37.6458289 46.0758684,37.8031447 C48.4372105,38.6266447 51.3483553,39.4453289 53.5058289,40.2937105 C53.8525658,40.9727368 53.6326447,42.6863553 53.5058289,43.5475789 C53.3372763,44.6881184 53.2144737,45.7058553 52.7834605,46.3182632 L52.7834605,46.3182632 Z" id="Shape"></path>
                    <path d="M23.2642763,37.7236842 C23.1824079,38.1546974 22.8396842,38.5271184 22.5017763,39.0095 C22.0964474,39.5865921 21.3467895,40.70225 20.7745132,39.5312105 C20.8644079,39.0480263 21.3877237,38.7815526 21.7384737,38.5271184 C22.1574474,38.2237237 22.5884605,37.9363816 22.9841579,37.6426184 C23.1302368,37.6169342 23.1968553,37.6699079 23.2642763,37.7236842 L23.2642763,37.7236842 Z" id="Shape"></path>
                    <path d="M37.2806316,39.6106711 C36.8399868,39.5159605 36.6730395,39.14675 36.4771974,38.8072368 C36.2725263,38.4605 35.7636579,38.2124868 35.8752237,37.6835526 C36.4450921,37.8874211 38.613,38.9862237 37.2806316,39.6106711 L37.2806316,39.6106711 Z" id="Shape"></path>
                    <path d="M25.3527237,39.4100132 C25.6071579,39.6941447 25.3479079,40.3218026 25.2331316,40.6958289 C25.1127368,41.0835 24.9225132,41.6228684 24.5902237,41.6589868 C24.3799342,41.6814605 24.1110526,41.5426053 24.0685132,41.2978026 C23.9962763,40.8924737 25.0437105,39.6885263 25.3133947,39.4100132 L25.3527237,39.4100132 L25.3527237,39.4100132 Z" id="Shape"></path>
                    <path d="M33.4649211,39.4501447 C33.4665263,39.4108158 33.5146842,39.4196447 33.5459868,39.4100132 C33.9296447,39.5681316 34.1921053,39.9911184 34.5099474,40.4141053 C34.8029079,40.8033816 35.2299079,41.2247632 35.1528553,41.6991184 C35.1127237,41.9423158 34.8133421,42.2352763 34.5500789,42.2216316 C34.0917763,42.1991579 34.0195395,41.5008684 33.8670395,41.0168816 C33.6728026,40.3996579 33.4520789,40.0778026 33.4247895,39.5304079 C33.4328158,39.4983026 33.4657237,39.4910789 33.4649211,39.4501447 L33.4649211,39.4501447 Z" id="Shape"></path>
                    <path d="M39.2494868,40.2134474 C39.9959342,40.1235526 40.3490921,40.7728816 40.8555526,41.0570132 C41.3170658,41.3852895 41.8516184,41.6405263 42.1012368,42.1815 C42.1172895,42.7850789 41.9086053,43.1374342 41.7400526,43.6671711 C41.6236711,44.0315658 41.5393947,44.7996842 41.0971447,44.8317895 C40.6147632,44.8671053 39.8538684,43.5371447 39.6106711,43.1855921 C39.2286184,42.6325789 38.3946842,41.8700789 38.4059211,41.2576711 C38.41475,40.7110789 38.9493026,40.4068816 39.2494868,40.2134474 L39.2494868,40.2134474 Z" id="Shape"></path>
                    <path d="M30.7745,40.2535789 L30.8948947,40.2535789 C31.1276579,41.1380789 32.0081447,42.7377237 32.0193816,43.7474342 C32.0225921,44.0323684 31.4984737,44.5813684 31.0152895,44.4698026 C30.5393289,44.24025 30.6942368,43.41675 30.6942368,42.7433421 C30.6942368,41.9134211 30.6669474,41.0497895 30.7351711,40.3739737 C30.7231316,40.3089605 30.7728947,40.30575 30.7745,40.2535789 L30.7745,40.2535789 Z" id="Shape"></path>
                    <path d="M26.3166842,46.2781316 C26.0718816,45.8190263 26.3648421,45.3246053 26.5173421,44.8719211 C26.6738553,44.4128158 26.8111053,43.9240132 26.9595921,43.4665132 C27.2645921,42.5242237 27.5944737,41.5450132 27.9235526,40.6958289 C27.938,40.6428553 27.9941842,40.6324211 28.0038158,40.5754342 C28.0511711,40.5690132 28.07525,40.5842632 28.0848816,40.6155658 C28.2405921,42.1477895 28.1675526,44.11825 28.1250132,45.7154868 C27.8143947,46.1545263 26.9555789,46.4314342 26.3166842,46.2781316 L26.3166842,46.2781316 Z" id="Shape"></path>
                    <path d="M18.9276579,40.7359605 C19.1949342,40.7150921 20.3274474,41.1990789 20.3731974,41.6991184 C20.4061053,42.0627105 19.8627237,42.7016053 19.6098947,43.0242632 C18.9798289,43.8309079 18.4508947,44.4778289 17.8433026,45.3535 C17.5688026,45.7491974 17.2959079,46.3343158 16.8400132,46.3977237 C16.3399737,46.4675526 15.4763421,46.0863026 14.8310263,45.8760132 C14.3839605,45.7299342 13.2691053,45.5292763 13.2249605,44.9923158 C13.1904474,44.5677237 14.0003026,44.0901579 14.4698421,43.7474342 C15.4731316,43.0146316 16.3760921,42.3869737 17.3215921,41.6983158 C17.7164868,41.4109737 18.4284211,40.7744868 18.9276579,40.7359605 L18.9276579,40.7359605 Z" id="Shape"></path>
                    <path d="M20.2126711,46.7195789 C20.26725,46.0582105 20.8892895,45.4642632 21.4174211,44.7523289 C21.8516447,44.1672105 22.3540921,43.0114211 22.9841579,42.9448026 C23.3910921,42.9014605 23.9103947,43.1888026 24.1078421,43.5475789 C24.1584079,44.1423289 23.8221053,44.7242368 23.6254605,45.3543026 C23.4569079,45.8984868 23.3621974,46.7083421 22.9030921,46.9202368 C22.5748158,47.0719342 21.9744474,47.0013026 21.4575526,47.0013026 C20.9535,47.0005 20.3723947,47.0703289 20.2126711,46.7195789 L20.2126711,46.7195789 Z" id="Shape"></path>
                    <path d="M37.2413026,44.1888816 C37.5719868,44.5275921 37.83525,44.9337237 38.0848684,45.3535 C38.4171579,45.7331447 38.6563421,46.0429605 38.9685658,46.4779868 C39.2438684,46.8600395 39.7976842,47.3496447 39.7318684,48.0037895 C39.6772895,48.5431579 39.0584605,49.2430526 38.7277763,49.6909211 C38.4444474,50.0745789 37.8456842,51.0826842 37.4419605,51.0561974 C37.0647237,51.0313158 36.8480132,50.0336447 36.6794605,49.5303947 C36.2484474,48.2477895 36.0188947,47.3624868 35.5549737,46.0766711 C35.3663553,45.5525526 34.9835,44.8366053 35.0332632,44.3494079 C35.0806184,43.8822763 35.8383026,43.2586316 36.1569474,43.2249211 C36.7966447,43.1583026 36.8753026,43.8244868 37.2413026,44.1888816 L37.2413026,44.1888816 Z" id="Shape"></path>
                    <path d="M46.5181184,52.7834605 C46.4659474,52.582 46.3519737,52.4407368 46.2765263,52.26175 C45.4016579,51.10275 44.2996447,49.6499868 43.3453158,48.2863158 C43.0684079,47.8906184 42.4768684,47.3351974 42.4214868,46.9202368 C42.3508553,46.3969211 42.7369211,45.6191711 42.9431974,45.0733816 C43.1703421,44.4762237 43.3846447,43.8927105 43.6663684,43.4263816 C44.0596579,43.1896053 44.5235789,43.6936579 44.9521842,43.9882237 C45.3213947,44.2426579 45.7259211,44.4786316 45.9964079,44.6712632 C46.3479605,44.9216842 46.6007895,45.2483553 46.9194342,45.4746974 C47.9331579,46.1938553 48.7574605,46.7404474 49.9317105,47.6032763 C50.4646579,47.9949605 51.6533553,48.6009474 51.7793684,49.1692105 C51.8909342,49.6724605 51.4101579,50.3522895 51.1765921,50.7752763 C50.5818421,51.8580263 50.1034737,52.6566447 49.41,53.5868947 C49.1836579,53.8894868 48.7470263,54.7378684 48.2855132,54.7515132 C47.8721579,54.7635526 47.5318421,54.1166316 47.3223553,53.8276842 C47.0213684,53.4159342 46.7950263,53.1061184 46.5181184,52.7834605 L46.5181184,52.7834605 Z" id="Shape"></path>
                    <path d="M32.2609737,45.8358816 C32.2738158,45.8334737 32.3019079,45.7981579 32.3412368,45.79575 C32.9239474,45.7588289 33.1888158,46.8648553 33.3453289,47.3616842 C33.7618947,48.6836184 34.2242105,49.9878947 34.6303421,51.2175263 C34.8245789,51.8026447 35.2547895,52.6365789 35.1929868,53.2257105 C35.1432237,53.7000658 34.6311447,53.9673421 34.3494211,54.1896711 C33.5668553,54.8076974 33.0844737,55.0990526 32.2208421,55.6352105 C31.9391184,55.8109868 31.4679737,56.2861447 31.0160921,56.1175921 C30.5995263,55.9618816 30.7327632,55.205 30.7351711,54.6311184 C30.7399868,52.9488026 30.6942368,50.5938816 30.6942368,48.6475 C30.6942368,47.9323553 30.6059474,47.1433684 30.7745,46.7589079 C30.9133553,46.4450789 31.7970526,45.91775 32.2609737,45.8358816 L32.2609737,45.8358816 Z" id="Shape"></path>
                    <path d="M11.2962368,46.2781316 C11.6526053,46.2131184 12.1550526,46.4707632 12.5419211,46.6393158 C12.8734079,46.7837895 13.1768026,46.9483289 13.5853421,47.1216974 C14.0861842,47.3327895 15.6296447,47.6337763 15.7139211,48.0447237 C15.7877632,48.4010921 15.3615658,48.8393289 15.1922105,49.0889474 C14.5372632,50.0601316 13.8726842,50.7993553 13.3052237,51.8203026 C12.9825658,52.4014079 12.5162368,53.0130132 12.0603421,53.6671579 C11.7641711,54.0909474 11.0393947,55.2250658 10.6148026,55.2740263 C10.0866711,55.3342237 9.43653947,54.6688421 9.04806579,54.3903289 C7.99421053,53.6350526 7.26622368,53.009 6.39777632,52.1405526 C6.04863158,51.7922105 5.35275,51.3018026 5.35275,50.7752763 C5.35275,50.2744342 6.31671053,49.7623553 6.67789474,49.4902632 C7.72051316,48.7036842 8.73584211,48.0904737 9.69017105,47.3616842 C10.1268026,47.0285921 10.6725921,46.3921053 11.2962368,46.2781316 L11.2962368,46.2781316 Z" id="Shape"></path>
                    <path d="M22.3813816,58.3264342 C22.3958289,57.4403289 22.7674474,56.6200395 23.0644211,55.7564079 C23.7474605,53.7658816 24.4080263,51.5851316 25.0324737,49.4108026 C25.1496579,49.0006579 25.3527237,48.4933947 25.5943158,48.3264474 C26.0799079,47.9885395 27.0005263,47.9283421 27.5623684,47.8047368 C28.4083421,47.6185263 28.1619342,49.15075 28.1643421,49.9726447 C28.1683553,51.0602105 28.2044737,52.3315789 28.2044737,53.7883553 C28.2044737,54.8229474 28.4332237,56.9378816 28.0439474,57.4836711 C27.8015526,57.8247895 27.2292763,57.8480658 26.7589342,57.9660526 C25.7700921,58.2132632 24.9546184,58.4460263 23.8269211,58.5278947 C23.3084211,58.5656184 22.7225,58.6346447 22.3813816,58.3264342 L22.3813816,58.3264342 Z" id="Shape"></path>
                    <path d="M22.3813816,48.8080263 C22.4375658,49.6941316 22.0555132,50.5248553 21.7786053,51.3371184 C21.2392368,52.9255263 20.7937763,54.5331974 20.2528026,56.1569211 C19.9991711,56.9194211 19.8932237,57.8239868 19.2896447,58.3657632 C17.5856579,58.3232237 15.9386579,57.8825789 14.4698421,57.3616711 C14.0179605,57.2019474 13.4793947,57.0478421 13.2249605,56.6393026 C13.2658947,55.7154737 13.9593684,55.0773816 14.4297105,54.4304605 C14.9136974,53.7650789 15.3495263,53.0667895 15.8351184,52.4222763 C16.8055,51.1348553 17.6643158,49.7591447 18.7671316,48.5664342 C19.6925658,48.5897105 21.6293158,48.3649737 22.3813816,48.8080263 L22.3813816,48.8080263 Z" id="Shape"></path>
                    <path d="M40.5746316,60.4140789 C40.0858289,60.0737632 39.9895132,59.3947368 39.7711974,58.8080132 C39.3241316,57.6048684 39.0183289,56.5229211 38.5664474,55.1929605 C38.3665921,54.6062368 37.9893553,53.9199868 38.0447368,53.3461053 C38.0993158,52.7601842 38.93325,52.0731316 39.3698816,51.4976447 C39.6355526,51.1468947 39.8948026,50.8844342 40.09225,50.6139474 C40.2439474,50.4044605 40.6027237,49.6074474 40.9358158,49.6098553 C41.5105,49.6138684 42.1831053,50.8322632 42.4616184,51.2167237 C43.6270395,52.8227895 44.5797632,54.1663947 45.7548158,55.7548026 C45.9964079,56.0806711 46.3270921,56.4354342 46.3174605,56.7588947 C46.3006053,57.3086974 45.5043947,57.6827237 45.1528421,57.9636447 C44.6712632,58.3473026 44.2121579,58.6683553 43.7875658,58.9276053 C42.8171842,59.52075 41.8861316,60.0994474 40.5746316,60.4140789 L40.5746316,60.4140789 Z" id="Shape"></path>
                </g>
            </g>
        </g>
    </g>
</svg>