<?xml version="1.0" encoding="UTF-8" standalone="no"?>
<svg width="70px" height="61px" viewBox="0 0 70 61" version="1.1" xmlns="http://www.w3.org/2000/svg" xmlns:xlink="http://www.w3.org/1999/xlink">
    <!-- Generator: Sketch 40.1 (33804) - http://www.bohemiancoding.com/sketch -->
    <title>Group 4</title>
    <desc>Created with Sketch.</desc>
    <defs>
        <path d="M15.7734,0 L15.8582,0 C18.8026,5.005 21.6341,10.068 24.5829,15.07 C27.5299,20.066 30.3579,25.137 33.3075,30.139 C37.7263,37.632 41.963,45.237 46.4159,52.722 C47.5263,54.588 48.5666,56.497 49.7033,58.389 C50.0716,59.003 50.5039,59.663 50.5459,60.404 C41.1055,60.493 31.1961,60.446 21.5055,60.446 C20.8528,60.446 20.0215,60.547 19.6094,60.404 C19.1386,60.24 18.6285,58.967 18.303,58.389 C17.8795,57.638 17.4586,56.955 17.0806,56.29 C16.2555,54.84 15.5126,53.324 14.7627,52.008 C11.4518,46.203 8.4391,40.845 5.1955,35.091 C3.8454,32.696 2.4174,30.199 0.9806,27.703 C0.7829,27.358 0.4373,26.794 0.4329,26.612 C0.4224,26.229 1.0839,25.306 1.3175,24.891 C2.252,23.231 3.2556,21.543 4.184,19.937 C8.0261,13.289 11.9243,6.761 15.6482,0.124 C15.6701,0.065 15.713,0.024 15.7734,0 L15.7734,0 Z" id="path-1"></path>
        <path d="M10.0704,0.769 L10.1553,0.769 C13.1014,5.593 15.8043,10.564 18.585,15.503 C20.6588,19.187 22.7763,22.856 24.9078,26.544 C25.2639,27.16 25.5623,27.817 25.9193,28.432 C26.2719,29.04 26.7671,29.602 26.8888,30.321 C25.3339,30.483 23.6845,30.405 22.0413,30.405 C17.2051,30.405 12.3734,30.397 7.5416,30.363 C6.8206,29.39 6.2694,28.311 5.6446,27.257 C4.1064,24.659 2.6145,22.041 1.0929,19.324 C0.8488,18.888 0.2608,18.044 0.2503,17.686 C0.2345,17.184 1.19,15.972 1.4306,15.546 C3.8229,11.303 6.2221,7.086 8.6809,2.91 C9.0904,2.214 9.5244,1.49 9.9453,0.854 C9.975,0.814 10.0205,0.789 10.0704,0.769 L10.0704,0.769 Z" id="path-3"></path>
        <path d="M4.8895,0.799 C4.9254,0.792 4.9298,0.816 4.9315,0.841 C5.481,1.436 5.8266,2.191 6.2379,2.898 C7.0385,4.275 7.84,5.702 8.6406,7.137 C9.0344,7.843 9.5847,8.482 9.737,9.278 C9.0072,9.498 8.1734,9.404 7.3342,9.404 L2.3608,9.404 C1.5382,9.404 0.7114,9.505 0,9.278 C0.1733,8.464 0.6886,7.787 1.0964,7.095 C1.9093,5.715 2.6862,4.337 3.4991,2.939 C3.9016,2.247 4.326,1.518 4.7635,0.882 C4.7941,0.845 4.8396,0.82 4.8895,0.799 L4.8895,0.799 Z" id="path-5"></path>
    </defs>
    <g id="Page-1" stroke="none" stroke-width="1" fill="none" fill-rule="evenodd">
        <g id="logobook_catagorie_icons" transform="translate(-903.000000, -1261.000000)">
            <g id="Group-4" transform="translate(903.000000, 1261.000000)">
                <g id="Group-1119" transform="translate(19.000000, 0.000000)">
                    <mask id="mask-2" fill="white">
                        <use xlink:href="#path-1"></use>
                    </mask>
                    <g id="Clip-1118"></g>
                    <polygon id="Fill-1117" fill="#000000" mask="url(#mask-2)" points="-4.5672 -5 55.5459 -5 55.5459 65.48 -4.5672 65.48"></polygon>
                </g>
                <g id="Group-1122" transform="translate(7.000000, 30.000000)">
                    <mask id="mask-4" fill="white">
                        <use xlink:href="#path-3"></use>
                    </mask>
                    <g id="Clip-1121"></g>
                    <polygon id="Fill-1120" fill="#000000" mask="url(#mask-4)" points="-4.7499 -4.231 31.8888 -4.231 31.8888 35.424 -4.7499 35.424"></polygon>
                </g>
                <g id="Group-1125" transform="translate(0.000000, 51.000000)">
                    <mask id="mask-6" fill="white">
                        <use xlink:href="#path-5"></use>
                    </mask>
                    <g id="Clip-1124"></g>
                    <polygon id="Fill-1123" fill="#000000" mask="url(#mask-6)" points="-5 -4.202 14.737 -4.202 14.737 14.426 -5 14.426"></polygon>
                </g>
            </g>
        </g>
    </g>
</svg>